<?xml version="1.0" encoding="UTF-8" standalone="no"?>
<!-- Generator: Adobe Illustrator 15.0.0, SVG Export Plug-In . SVG Version: 6.00 Build 0)  -->

<svg
   xmlns:dc="http://purl.org/dc/elements/1.1/"
   xmlns:cc="http://creativecommons.org/ns#"
   xmlns:rdf="http://www.w3.org/1999/02/22-rdf-syntax-ns#"
   xmlns:svg="http://www.w3.org/2000/svg"
   xmlns="http://www.w3.org/2000/svg"
   xmlns:sodipodi="http://sodipodi.sourceforge.net/DTD/sodipodi-0.dtd"
   xmlns:inkscape="http://www.inkscape.org/namespaces/inkscape"
   version="1.1"
   id="Ebene_1"
   x="0px"
   y="0px"
   width="512.922"
   height="174.789"
   viewBox="-365.261 -558.234 512.92198 174.789"
   enable-background="new -365.261 -558.234 566.929 566.929"
   xml:space="preserve"
   inkscape:version="0.92.5 (2060ec1f9f, 2020-04-08)"
   sodipodi:docname="FAU_Katze_native_svg.svg"><metadata
     id="metadata27"><rdf:RDF><cc:Work
         rdf:about=""><dc:format>image/svg+xml</dc:format><dc:type
           rdf:resource="http://purl.org/dc/dcmitype/StillImage" /><dc:title></dc:title></cc:Work></rdf:RDF></metadata><defs
     id="defs25" /><sodipodi:namedview
     pagecolor="#ffffff"
     bordercolor="#666666"
     borderopacity="1"
     objecttolerance="10"
     gridtolerance="10"
     guidetolerance="10"
     inkscape:pageopacity="0"
     inkscape:pageshadow="2"
     inkscape:window-width="1918"
     inkscape:window-height="1061"
     id="namedview23"
     showgrid="true"
     inkscape:zoom="1.4142136"
     inkscape:cx="273.68134"
     inkscape:cy="58.955257"
     inkscape:window-x="0"
     inkscape:window-y="17"
     inkscape:window-maximized="0"
     inkscape:current-layer="g3"
     fit-margin-top="0"
     fit-margin-left="0"
     fit-margin-right="0"
     fit-margin-bottom="0"
     showguides="true"
     inkscape:guide-bbox="true"><inkscape:grid
       type="xygrid"
       id="grid5132" /></sodipodi:namedview><g
     id="g3"
     transform="translate(-392.264,-638.685)"><path
       style="fill:#d10019;fill-opacity:1;stroke:none;stroke-width:1.00157475;stroke-linecap:butt;stroke-linejoin:miter;stroke-miterlimit:4;stroke-dasharray:none;stroke-opacity:1"
       d="M 27.003,255.24 539.925,80.451 57.003,80.47202 c -20,0 -30,9.767981 -30,29.76798 z"
       id="path5124"
       inkscape:connector-curvature="0"
       sodipodi:nodetypes="ccccc" /><path
       style="fill:#000000;fill-opacity:1;stroke:none;stroke-width:1px;stroke-linecap:butt;stroke-linejoin:miter;stroke-opacity:1"
       d="M 27.003,255.24 539.925,80.451 540.003,225.24 c 0,20 -10,30 -30,30 z"
       id="path5138"
       inkscape:connector-curvature="0"
       sodipodi:nodetypes="ccccc" /></g><g
     id="g9"
     transform="translate(-392.264,-638.685)"><g
       id="g11"><polygon
         points="143.228,221.874 210.324,113.08 277.156,221.874 230.63,221.874 210.07,187.582 189.623,221.874 "
         id="polygon13"
         style="fill:#ffffff" /><polygon
         points="71.066,128.134 61.799,128.134 61.799,138.358 61.799,144.413 61.799,157.048 61.799,189.042 61.799,221.61 101.67,221.61 101.67,189.042 153.036,189.042 153.036,157.048 101.67,157.048 101.67,144.413 153.036,144.413 153.036,112.538 61.799,112.538 61.799,112.811 "
         id="polygon15"
         style="fill:#ffffff" /><path
         d="m 373.619,113.08 h -40.064 l 9.006,15.054 h -9.277 v 39.406 c 0,7.788 -6.189,14.513 -14.383,14.513 -7.938,0 -14.531,-6.725 -14.531,-14.513 l -0.131,-54.46 H 265.37 l 9.012,15.054 h -9.277 v 39.406 c 0,29.996 24.338,54.334 54.457,54.334 30.129,0 54.322,-24.338 54.322,-54.334 l -0.265,-54.46 z"
         id="path17"
         inkscape:connector-curvature="0"
         style="fill:#ffffff" /></g><path
       d="m 479.039,160.132 c -0.51,0.91 -0.83,2.125 -0.83,3.599 0.188,1.61 -0.969,3.009 0.188,4.618 1.357,1.16 4.184,1.352 3.533,3.791 -1.93,2.058 -5.33,3.838 -4.182,7.314 0,0.772 -1.018,1.016 -1.799,1.281 -0.52,1.356 0.074,3.342 -2.035,3.542 0.234,2.505 -2.203,6.093 0.951,7.431 0.781,-0.631 2.186,-1.215 2.883,-0.123 1.424,3.411 0.254,6.471 -1.912,9.174 -1.092,2.299 -0.121,4.747 -1.215,6.979 l 1.479,4.512 c -1.545,0.688 -0.924,3.579 -3.098,3.711 -0.246,0.32 0.062,0.772 0.207,1.093 l -0.266,-0.697 c -0.641,-0.265 -1.348,0.632 -1.402,1.395 l -1.545,-0.753 0.064,-0.32 -0.971,-0.321 c 4.822,-6.103 0,-14.354 0.246,-21.491 -0.246,-0.528 -0.178,-1.159 -0.631,-1.413 -3.521,5.5 -2.299,12.13 -3.777,17.952 -1.289,0.648 -2.449,1.082 -2.637,2.239 -0.197,-0.253 -0.387,-0.074 -0.623,0 -0.338,0.245 0.047,0.51 0.047,0.839 -0.047,-0.197 -0.121,-0.461 -0.441,-0.518 -0.838,0.254 0.441,0.518 -0.131,0.696 0.244,-0.302 -0.254,-0.517 -0.529,-0.696 -0.508,1.404 -1.016,0.829 -2.307,2.373 -0.064,-0.252 -0.246,-0.252 -0.367,-0.32 l -0.32,0.584 -0.979,-0.451 -0.236,0.584 c -0.535,-0.321 -0.771,-1.365 -0.195,-2.375 0.195,-0.196 0.367,-0.074 0.518,0 l 0.121,-0.253 c -0.318,-1.103 -0.057,0.452 0.377,0.386 -0.301,-2.071 2.506,-1.808 2.893,-3.521 0.264,-6.688 1.939,-12.96 0.971,-20.146 -4.938,-3.597 -9.814,-8.334 -10.145,-15.596 0.133,-0.708 -0.387,-1.475 -0.564,-2.247 -5.133,5.844 -3.023,14.64 -6.564,21.563 -0.232,3.973 1.027,8.381 1.365,12.187 0.066,1.601 -1.996,3.014 -1.215,4.606 -0.592,-0.707 -0.904,0.328 -1.432,0.535 0,0.754 -0.311,1.282 -0.754,1.658 -1.809,-0.057 -1.025,4.229 -3.408,1.799 l 0.131,0.122 -0.131,0.208 -0.244,-0.076 0.244,-0.254 c -0.244,-0.066 -0.379,-0.197 -0.52,-0.066 l -0.131,0.264 c -0.066,-1.091 -1.846,-0.337 -2.506,-0.771 -0.754,-1.168 -0.377,-2.684 0,-4.049 -3.127,-0.076 -5.002,6.931 -8.213,2.579 l -0.443,-1.487 0.189,0.132 c 0.715,-3.899 6.094,-4.605 5.717,-8.834 -0.32,-9.106 -2.619,-17.519 -2.055,-26.634 -1.666,-0.696 -2.307,-2.688 -4.303,-2.632 -2.176,0.203 -2.297,2.368 -2.809,3.857 0.584,0.631 -0.195,1.225 -0.318,1.733 -1.148,0.631 -2.316,0.376 -3.354,0 -1.348,-1.281 -2.75,-3.137 -4.738,-3.137 l -0.254,-0.857 c 0.895,-1.074 2.957,-0.697 3.844,0.527 0.328,0.245 0.584,0.905 1.092,0.716 2.25,-0.253 0.33,-3.027 2.562,-3.283 0.264,-0.568 0.848,-1.407 0.084,-1.792 l -3.588,-0.589 c -1.035,3.594 -6.555,0 -5.34,4.883 -0.641,0.311 -1.602,0.311 -1.924,0.895 0.389,-1.281 1.227,-2.759 0,-3.847 -1.74,-0.646 -1.986,1.982 -3.52,2.322 -0.066,-0.462 0.385,-0.971 -0.066,-1.616 -0.695,-0.697 -1.91,0.777 -2.307,-0.127 1.279,-1.286 3.154,-1.092 3.854,-2.815 -0.773,-2.375 -4.438,0.248 -4.625,-2.76 1.346,-2.43 1.668,-5.071 1.412,-7.775 -0.197,-1.724 -0.707,-3.527 -1.412,-5.312 0.441,-1.159 -0.396,-3.211 1.469,-3.654 2.449,0.951 1.207,4.492 3.898,5.005 3.137,-2.179 6.234,-3.983 10.268,-3.597 2.053,-1.351 1.789,-4.874 4.115,-6.155 2.107,1.794 1.525,4.62 2.287,6.926 -0.695,1.088 0.256,2.247 0.133,3.334 0.594,0.83 1.291,0.386 1.752,-0.136 -0.912,-3.324 2.299,-6.409 1.59,-9.748 1.678,-2.565 1.018,-5.961 3.344,-8.401 -0.715,-1.544 0.963,-2.109 1.34,-3.72 1.479,-2.565 0.902,-7.129 5.133,-7.628 0.584,-3.019 4.051,-2.19 5.066,-5.066 1.291,-3.462 4.115,-0.381 6.281,-2.12 0.648,0.25 1.291,-0.25 1.602,-0.706 0.453,2.114 2.957,1.159 4.502,1.215 l 2.619,-0.692 c 1.018,2.5 3.465,1.851 5.521,1.544 0.441,-0.396 0.582,0.307 0.77,0.434 -0.648,0.203 -0.912,1.158 -1.035,1.737 1.168,3.594 6.611,0.637 6.303,5.322 3.889,3.598 7.75,9.046 5.875,14.768 -0.51,1.601 -0.961,3.767 0.256,5.062 1.809,-0.126 2.703,-1.479 2.834,-3.019 0.32,-5.006 -3.021,-11.669 2.938,-14.951 0.461,-3.084 -0.121,-7.182 2.316,-9.305 0.961,-1.352 1.094,-4.031 3.016,-3.725 0.197,0.975 -0.828,2.25 0.574,2.815 0.385,-3.334 3.852,-3.584 4.746,-6.602 1.084,-0.447 1.469,-2.566 3.021,-1.662 0.246,0.249 0.51,0.512 0.564,0.899 0.771,0.443 1.027,-0.589 1.471,-0.899 4.566,0.842 3.137,-4.428 7.326,-4.492 1.217,-1.794 2.176,-4.676 4.615,-5.12 1.025,0.123 3.08,-0.32 2.506,1.598 -0.311,1.93 -1.604,4.303 0.377,5.778 1.809,3.146 -3.193,5.584 -0.508,8.466 -1.592,2.431 -1.668,5.067 -4.689,5.906 0.449,4.356 -2.555,6.343 -3.977,10.134 -2.75,1.658 -2.562,6.027 -3.965,8.458 -2.186,1.874 -3.016,6.541 -6.734,5.393 -2.373,1.406 0.453,4.298 -2.053,5.392 -4.144,2.641 -10.753,2.325 -13.128,6.487 m -60.088,1.681 c 0.572,0.509 1.215,0.25 1.789,0.046 0.273,-1.205 1.158,-2.419 1.609,-3.385 -0.584,-0.32 -1.148,-0.193 -1.732,0.056 -0.584,1.095 -1.799,1.942 -1.666,3.283 z m 46.308,27.445 c 0.705,0.717 1.678,1.46 2.816,1.688 -0.443,-1.365 -0.896,-3.74 -2.629,-3.994 -0.32,0.773 -0.32,1.478 -0.187,2.306 z m -52.158,-17.376 c 1.365,-0.127 3.654,0.192 3.908,-1.804 0.584,-0.568 1.082,0.203 1.619,0.396 2.373,0 4.992,-1.092 5.877,-3.531 0.33,-0.711 -0.131,-0.904 -0.508,-1.409 -3.213,-1.474 -5.576,1.729 -7.629,3.452 -1.545,-0.131 -3.016,-0.579 -4.615,-0.25 -0.894,0.956 -0.433,3.146 1.348,3.146 z m -2.053,-6.744 c 0.385,-0.819 1.215,-2.18 0.133,-2.953 -1.217,0.514 -1.988,2.444 -0.133,2.953 z m 5.528,1.728 -0.311,-1.013 c -0.15,0.123 -0.209,0.316 -0.34,0.378 -1.289,0.326 -0.008,1.215 0.651,0.635 z"
       id="path19"
       inkscape:connector-curvature="0"
       style="fill:#ffffff" /><path
       d="m 451.47,226.922 c 33.209,0 60.354,-27.125 60.354,-60.365 0,-33.232 -27.133,-60.296 -60.354,-60.296 -33.225,0 -60.303,27.063 -60.303,60.296 0,33.222 27.077,60.365 60.303,60.365 z"
       id="path21"
       inkscape:connector-curvature="0"
       style="fill:none;stroke:#ffffff;stroke-width:2.41109991" /></g></svg>