<?xml version="1.0" encoding="UTF-8" standalone="no"?>
<!-- Created with Inkscape (http://www.inkscape.org/) -->

<svg
   xmlns:dc="http://purl.org/dc/elements/1.1/"
   xmlns:cc="http://creativecommons.org/ns#"
   xmlns:rdf="http://www.w3.org/1999/02/22-rdf-syntax-ns#"
   xmlns:svg="http://www.w3.org/2000/svg"
   xmlns="http://www.w3.org/2000/svg"
   version="1.1"
   width="570.84534"
   height="111.92304"
   id="svg3097">
  <defs
     id="defs3099" />
  <g
     transform="translate(-100.29161,-439.2578)"
     id="layer1">
    <path
       d="m 178.63072,544.5794 -0.0238,0.0138 -1.01,0.2175 0.6675,-3.485 -3.42375,0.73625 c -0.22875,0.0487 -0.35125,0.075 -0.44875,0.0875 -0.09,0.009 -0.15125,0.0125 -0.24125,0.025 l 0.1775,1.1325 c 0.35375,-0.44375 0.49875,-0.63 2.02875,-0.95625 l 1.06,-0.23 -0.525,2.84125 -0.97375,0.2075 c -0.18125,0.04 -0.27875,0.0625 -0.3575,0.0687 -0.0725,0.01 -0.1225,0.0125 -0.195,0.02 l 0.0412,0.42375 -0.0238,0.0138 0.0263,-0.005 0,0.005 0.025,-0.0113 1.37875,-0.29625 -0.23375,1.2725 c -0.1475,0.81125 -0.33,1.4975 -0.6375,2.0325 l 1.375,-0.29375 c -0.0213,-0.0613 -0.0775,-0.23125 -0.1,-0.34625 -0.0888,-0.40125 -0.0613,-0.92 0.15875,-2.075 l 0.14125,-0.74 0.605,-0.13125 c 0.18125,-0.0388 0.27875,-0.0588 0.35875,-0.07 0.0713,-0.006 0.12125,-0.01 0.19375,-0.0187 l -0.0425,-0.4225 0.0263,-0.0138 -0.0263,0.006 -0.001,-0.009 m -30.04,2.005 -0.0275,0.005 -1.005,-0.1025 1.70125,-3.11 -3.48375,-0.35125 c -0.23125,-0.0225 -0.35625,-0.0375 -0.45375,-0.055 -0.0875,-0.0187 -0.14875,-0.0337 -0.2375,-0.05 l -0.1775,1.135 c 0.4725,-0.315 0.6675,-0.44875 2.225,-0.29 l 1.07875,0.1075 -1.37,2.54375 -1.0125,-0.1025 c -0.18625,-0.02 -0.285,-0.03 -0.3625,-0.045 -0.0712,-0.0138 -0.12,-0.0263 -0.19,-0.0413 l -0.0913,0.41625 -0.0275,0.006 0.0263,10e-4 -0.001,0.006 0.0275,-0.004 1.425,0.14375 -0.615,1.13875 c -0.38875,0.7275 -0.77375,1.32625 -1.22875,1.74 l 1.4,0.14 c -0.004,-0.0625 -0.005,-0.2425 0.007,-0.35875 0.0412,-0.41 0.22625,-0.89375 0.78875,-1.92875 l 0.3625,-0.65875 0.595,0.06 c 0.18375,0.0175 0.28375,0.0275 0.36125,0.0425 0.0712,0.015 0.12,0.0288 0.19125,0.0413 l 0.0913,-0.41625 0.0275,-0.004 -0.0263,-0.002 0.001,-0.008 m 14.42125,-2.71875 -1.05875,0.0975 c -1.1425,0.105 -1.51625,0.35625 -1.87,0.63 l 0.0412,-0.7425 c 0.0113,-0.16125 0.006,-0.225 -0.0212,-0.34 l 3.88875,-0.35375 -1.36,3.1375 c 1.67875,0.16875 1.795,1.44375 1.81375,1.65 0.0462,0.50875 -0.2275,2.02625 -2.25125,2.21 -0.99125,0.0912 -1.41875,-0.0588 -1.70625,-0.16625 l 0.46875,-1.17875 c 0.115,0.28 0.3875,0.91125 1.3425,0.825 0.9625,-0.0875 1.4425,-0.9325 1.3775,-1.63875 -0.0425,-0.48 -0.3825,-0.84625 -0.725,-0.95875 -0.49375,-0.17125 -0.9825,-0.1175 -1.37375,-0.0713 l 1.43375,-3.1 m -31.08625,2.3475 c -0.22,0.53 -0.25875,0.775 -0.26625,1.3025 l -1.12375,-0.4475 c 0.5875,-0.625 0.66,-0.8075 0.9175,-1.43625 l 1.50375,-3.68125 -1.34,0.43125 -0.2325,-0.2625 c 0.245,-0.0825 2.34375,-0.90375 2.6325,-0.97125 l -2.09125,5.065"
       id="path20"
       style="fill:#231f20;fill-opacity:1;fill-rule:nonzero;stroke:none" />
    <path
       d="m 204.98072,455.2294 -0.5625,3 c -3.74125,19.63875 -16.88,47.87875 -38.6875,53.5 0.97625,2.21625 2.08625,4.495 3.28125,6.78125 23.1475,-6.98375 37.26125,-34.83625 42.03125,-55.84375 l 0.15625,0 0,54.9375 7.4375,0 0,-62.375 -3.71875,0 -9.9375,0 z m -89.65625,30.875 c 0,12.7825 8.09525,26.32375 25.46875,31.6875 1.0375,-2.1125 2.07375,-4.39625 3.125,-6.8125 -16.33588,-4.52625 -21.15625,-16.90625 -21.15625,-24.875 l -7.4375,0 z m 32.28125,25.71875 c -1.21625,2.92125 -2.26125,5.4275 -3,6.96875 3.98875,0.88875 8.39375,1.375 13.25,1.375 2.29875,0 4.50125,-0.21625 6.65625,-0.59375 -1.16625,-2.3 -2.1925,-4.65875 -3.09375,-7.0625 -1.1675,0.13125 -2.35125,0.21875 -3.5625,0.21875 -3.79,0 -7.1875,-0.34 -10.25,-0.90625 z"
       id="path22"
       style="fill:#bac5dc;fill-opacity:1;fill-rule:nonzero;stroke:none" />
    <path
       d="m 155.98072,440.26065 c -27.08125,0.2525 -54.93313,18.22875 -54.6875,47.90625 0.0904,10.95125 4.34812,20.8375 12.3125,28.59375 5.46738,5.3225 12.68488,9.555 20.71875,12.375 1.425,-2.09625 2.845,-4.46625 4.28125,-7.125 -7.55125,-2.40625 -14.3115,-6.1925 -19.3125,-11.0625 -6.462,-6.29125 -9.7705,-13.99375 -9.84375,-22.84375 -0.20312,-24.5825 23.545,-39.47125 46.625,-39.6875 22.63875,-0.21125 41.3125,14.0425 41.5,14.1875 l 2.0625,1.75 1.96875,-9.75 c -5.16125,-3.6325 -23.66375,-14.54875 -45.625,-14.34375 z m 13.28125,46.3125 0,8.15625 32.71875,0 c -5.22375,11.83875 -16.28875,23.3625 -30.65625,28.03125 1.355,2.3325 2.9875,4.68875 4.8125,7 18.0875,-6.68375 31.05875,-22.475 35.59375,-37.96875 l 1.53125,-5.21875 -44,0 z m -26.875,36.5 c -1.42875,2.64875 -2.86875,5.05375 -4.3125,7.25 6.56625,1.88625 13.55125,2.8775 20.53125,2.75 4.655,-0.0862 9.105,-0.7675 13.3125,-1.9375 -0.49625,-0.63875 -0.985,-1.31 -1.5,-2 -1.2325,-1.65625 -2.3875,-3.3825 -3.46875,-5.1875 -2.73125,0.59 -5.58,0.915 -8.5,0.96875 -5.45625,0.1 -10.88875,-0.555 -16.0625,-1.84375 z"
       id="path26"
       style="fill:#113e74;fill-opacity:1;fill-rule:nonzero;stroke:none" />
    <path
       d="m 201.05322,537.2294 c -1.145,-0.20875 -1.64875,2.0425 0.105,2.29125 0.72875,0.3125 0.52125,1.5625 -0.9375,2.8125 -1.45875,1.25 -8.75,3.4375 -14.375,-1.25 -5.625,-4.6875 -11.46,-11.145 -15.4175,-18.02 -3.00625,-5.2225 -6.48875,-12.305 -8.44875,-18.33125 8.125,0.195 7.19875,-3.44 7.19875,-3.44 -1.41,2.4175 -4.4725,2.88 -7.43875,2.67375 -0.5,-1.62375 -0.885,-3.16375 -1.1025,-4.54875 -1.0425,-6.6675 -0.8325,-13.22875 -0.52,-14.5825 0,0 -0.175,0.1125 -0.46375,0.335 l 0.0462,-0.2325 c 0,0 -8.9575,5.73 -19.27,-0.625 -10.3125,-6.3525 -7.9175,-29.47875 10,-29.375 3.4375,-0.1025 8.85375,0.9375 11.04125,4.375 0,0 0.62375,-1.145 2.0825,-1.5625 0,0 -1.45875,0.105 -2.5,-0.415 -1.04125,-0.5225 -2.49875,-3.23 -11.24875,-3.23 -8.75,0 -18.125,6.145 -18.125,17.7075 0,11.20375 12.22125,20.05875 26.435,14.72625 -2.1875,2.15875 -5.835,6.66375 -9.2775,14.97 -1.895,-0.0675 -3.50875,0.3025 -3.55625,1.7625 -0.055,1.725 0.97125,2.1975 1.94,2.26625 -5.17,12.87125 -10.27,22.52 -15.64625,28.77625 -4.897,5.7 -9.8955,10.8325 -19.792,9.5825 -3.542,-0.52 -8.6455,-5.52 -4.375,-11.04125 0.51412,-0.66375 0.834,1.35375 2.709,0.3125 1.875,-1.04125 -1.25,-3.645 -3.4375,-1.04125 -2.1875,2.60375 -4.48,12.2925 9.4785,13.125 13.9595,0.8325 24.5845,-20.83375 27.397,-26.45875 1.3675,-2.73625 4.11375,-9.6825 6.9825,-16.3975 2.78125,0.45125 6.35625,1.6075 8.4325,2.12625 0.325,0.035 0.63625,0.0663 0.94,0.0913 1.7725,7.34625 5.325,16.0125 11.24875,23.97125 13.9575,18.75 21.25,17.395 28.22875,15.625 2.29125,-1.04125 5.8325,-6.145 1.66625,-6.97875 z m -54.47875,-33.85375 c 0,-0.8425 0.78625,-1.155 1.97375,-1.16375 -0.1025,0.25375 -0.20625,0.48625 -0.30625,0.74625 -0.26625,0.6825 -0.53125,1.3475 -0.7975,2.0125 -0.71125,-0.33125 -0.87,-0.8175 -0.87,-1.595 z m 8.125,-0.83375 c -0.61375,-0.16375 -2.1825,-0.58125 -3.8675,-0.83625 2.94,-6.84375 5.96125,-13.28625 7.7225,-14.58125 0,0 -0.87,6.1475 0.745,14.685 0.11625,0.62125 0.2725,1.27625 0.4175,1.92 -2.36625,-0.3775 -4.385,-1.01875 -5.0175,-1.1875"
       id="path34"
       style="fill:#231f20;fill-opacity:1;fill-rule:nonzero;stroke:none" />
    <path
       d="m 640.91822,450.2919 c -0.74125,0 -1.34375,0.66 -1.34375,1.375 0,0.715 0.63,1.375 1.34375,1.375 0.71375,0 1.375,-0.63 1.375,-1.375 0,-0.74375 -0.62875,-1.375 -1.375,-1.375 z m 5.8125,0 c -0.745,0 -1.34375,0.66 -1.34375,1.375 0,0.715 0.63,1.375 1.34375,1.375 0.71125,0 1.375,-0.66 1.375,-1.375 0,-0.715 -0.6325,-1.375 -1.375,-1.375 z m -397.875,4.59375 c -6.57875,0 -11.5625,3.65 -11.5625,10.5625 0,5.9975 3.4725,10.46875 10.96875,10.46875 2.75375,0 5.45875,-0.4825 8.03125,-1.375 l 0,-8.375 c -0.4725,0.03 -0.86625,0.0937 -1.28125,0.0937 -0.4425,0 -0.8975,-0.0638 -1.3125,-0.0937 l 0,7.59375 c -1.36,0.71 -3.025,1 -4.625,1 -5.83625,0 -8.84375,-3.61875 -8.84375,-9.46875 0,-5.9675 3.495,-9.28125 8.53125,-9.28125 2.51875,0 5.00125,0.985 6.65625,2.875 l 0.3125,0 c 0.20625,-0.7675 0.42,-1.5425 0.6875,-2.28125 -0.65125,-0.41375 -3.14875,-1.71875 -7.5625,-1.71875 z m 37.625,0 c -6.12875,0 -10.96875,4.075 -10.96875,10.5625 0,6.34125 4.36125,10.46875 10.90625,10.46875 6.6,0 11.3125,-4.33 11.3125,-10.9375 0,-7.11 -5.6825,-10.09375 -11.25,-10.09375 z m 45.03125,0 c -6.5775,0 -11.5625,3.65 -11.5625,10.5625 0,5.9975 3.4425,10.46875 10.9375,10.46875 2.75625,0 5.49125,-0.4825 8.0625,-1.375 l 0,-8.375 c -0.4725,0.03 -0.89875,0.0937 -1.3125,0.0937 -0.44375,0 -0.86625,-0.0638 -1.28125,-0.0937 l 0,7.59375 c -1.36375,0.71 -3.02375,1 -4.625,1 -5.8375,0 -8.875,-3.61875 -8.875,-9.46875 0,-5.9675 3.49625,-9.28125 8.53125,-9.28125 2.51875,0 5.0025,0.985 6.65625,2.875 l 0.34375,0 c 0.2075,-0.7675 0.42,-1.5425 0.6875,-2.28125 -0.65,-0.41375 -3.14875,-1.71875 -7.5625,-1.71875 z m 30.1875,0 -9.25,20.65625 c 0.32625,-0.03 0.645,-0.0625 1.03125,-0.0625 0.355,0 0.6775,0.0325 1.09375,0.0625 0.83,-2.77625 1.9,-5.3625 2.9375,-7.96875 l 7.53125,0 c 1.1875,2.695 2.26375,5.51875 3.125,7.96875 0.50375,-0.03 1,-0.0625 1.5625,-0.0625 0.50375,0 0.965,0.0325 1.53125,0.0625 l -8.875,-20.65625 -0.6875,0 z m 47.53125,0 c -6.5775,0 -11.5625,3.65 -11.5625,10.5625 0,5.9975 3.44125,10.46875 10.9375,10.46875 2.755,0 5.4875,-0.4825 8.0625,-1.375 l 0,-8.375 c -0.475,0.03 -0.8975,0.0937 -1.3125,0.0937 -0.4425,0 -0.8675,-0.0638 -1.28125,-0.0937 l 0,7.59375 c -1.3625,0.71 -3.02625,1 -4.625,1 -5.8375,0 -8.875,-3.61875 -8.875,-9.46875 0,-5.9675 3.495,-9.28125 8.53125,-9.28125 2.52,0 5.02875,0.985 6.6875,2.875 l 0.3125,0 c 0.20625,-0.7675 0.42,-1.5425 0.6875,-2.28125 -0.65125,-0.41375 -3.1475,-1.71875 -7.5625,-1.71875 z m 42.09375,0 c -3.55375,0 -6.59375,1.84375 -6.59375,5.65625 0,6.68125 9.28125,4.28375 9.28125,9.78125 0,2.33625 -1.7275,4.3125 -4.125,4.3125 -2.30875,0 -3.625,-1.2025 -4.78125,-3.09375 l -0.3125,0 c -0.12125,0.88625 -0.265,1.79875 -0.5625,2.65625 1.00875,1.095 3.3925,1.71875 4.84375,1.71875 4.02625,0 7.3125,-2.52375 7.3125,-6.75 0,-6.29625 -9.34375,-4.12375 -9.34375,-9.5625 0,-2.0975 1.70875,-3.46875 3.75,-3.46875 1.74875,0 3.0325,0.9975 3.65625,2.59375 l 0.3125,0 c 0.24,-0.8275 0.42125,-1.66875 0.78125,-2.4375 -1.1025,-0.98 -2.79875,-1.40625 -4.21875,-1.40625 z m 150.0625,0 c -3.55125,0 -6.5625,1.84375 -6.5625,5.65625 0,6.68125 9.28125,4.28375 9.28125,9.78125 0,2.33625 -1.7275,4.3125 -4.125,4.3125 -2.31125,0 -3.655,-1.2025 -4.8125,-3.09375 l -0.28125,0 c -0.12,0.88625 -0.26625,1.8 -0.5625,2.65625 1.01,1.09625 3.36125,1.71875 4.8125,1.71875 4.025,0 7.34375,-2.52375 7.34375,-6.75 0,-6.29625 -9.34375,-4.12375 -9.34375,-9.5625 0,-2.0975 1.675,-3.46875 3.71875,-3.46875 1.745,0 3.0625,0.9975 3.6875,2.59375 l 0.28125,0 c 0.23875,-0.8275 0.45375,-1.66875 0.8125,-2.4375 -1.1025,-0.98 -2.82875,-1.40625 -4.25,-1.40625 z m 42.3125,0 -9.25,20.65625 c 0.325,-0.03 0.64625,-0.0625 1.03125,-0.0625 0.35625,0 0.70875,0.0325 1.125,0.0625 0.82875,-2.77625 1.86875,-5.3625 2.90625,-7.96875 l 7.53125,0 c 1.18625,2.695 2.26375,5.51875 3.125,7.96875 0.50375,-0.03 1.00125,-0.0625 1.5625,-0.0625 0.50375,0 0.9975,0.0325 1.5625,0.0625 l -8.90625,-20.65625 -0.6875,0 z m -382.09375,0.40625 0,20.1875 10.6875,0 c -0.0288,-0.29625 -0.0625,-0.57875 -0.0625,-0.875 0,-0.295 0.0337,-0.57875 0.0625,-0.90625 -0.91875,0.14875 -1.8,0.25125 -2.71875,0.28125 -1.78125,0.06 -3.56625,0.15375 -5.375,0.0937 l 0,-8.65625 4.59375,0 c 0.89,0 1.7675,0.125 2.65625,0.15625 -0.0288,-0.3275 -0.0937,-0.60625 -0.0937,-0.84375 0,-0.26625 0.065,-0.5125 0.0937,-0.75 -0.88875,0.0288 -1.76625,0.125 -2.65625,0.125 l -4.59375,0 0,-7.40625 2.28125,0 2.96875,0.0625 c 0.8925,0.0575 1.7975,0.135 2.6875,0.3125 -0.0312,-0.295 -0.0937,-0.58 -0.0937,-0.875 0,-0.29625 0.0625,-0.58 0.0937,-0.90625 l -10.53125,0 z m 40.53125,0 0,20.25 c 0.41625,-0.03 0.83875,-0.0625 1.28125,-0.0625 0.415,0 0.84,0.0325 1.3125,0.0625 l 0,-9.875 1.125,0 2.375,2.78125 3.5,4.53125 c 0.625,0.83 1.22125,1.65125 1.875,2.5625 0.53125,-0.03 1.12375,-0.0625 1.6875,-0.0625 0.5625,0 1.0975,0.0325 1.71875,0.0625 l -0.5625,-0.71875 -1.4375,-1.65625 -6.09375,-7.71875 c 2.9975,-0.53375 6.09375,-2.21625 6.09375,-5.65625 0,-2.995 -2.02375,-4.5 -6.59375,-4.5 l -6.28125,0 z m 72.875,0 0,11.84375 c 0.03,2.37125 0.26375,5.03125 2.125,6.71875 1.54375,1.38875 3.49625,2.0625 6.4375,2.0625 5.2275,0 8.6875,-2.97625 8.6875,-8.84375 l 0,-11.78125 c -0.2975,0.03 -0.57375,0.0625 -0.84375,0.0625 -0.29625,0 -0.5775,-0.0325 -0.84375,-0.0625 l 0,11.0625 c 0,4.80125 -1.6825,8.1875 -6.40625,8.1875 -5.08,0 -6.5625,-2.69 -6.5625,-7.90625 l 0,-11.34375 c -0.475,0.03 -0.8975,0.0625 -1.3125,0.0625 -0.44375,0 -0.8675,-0.0325 -1.28125,-0.0625 z m 47.09375,0 0,11.84375 c 0.0288,2.37125 0.26125,5.03125 2.125,6.71875 1.5425,1.38875 3.49625,2.0625 6.4375,2.0625 5.22875,0 8.6875,-2.97625 8.6875,-8.84375 l 0,-11.78125 c -0.3,0.03 -0.57375,0.0625 -0.84375,0.0625 -0.2975,0 -0.54625,-0.0325 -0.8125,-0.0625 l 0,11.0625 c 0,4.80125 -1.71625,8.1875 -6.4375,8.1875 -5.08125,0 -6.5625,-2.69 -6.5625,-7.90625 l 0,-11.34375 c -0.475,0.03 -0.86875,0.0625 -1.28125,0.0625 -0.44375,0 -0.89875,-0.0325 -1.3125,-0.0625 z m 36.6875,0 c 0.0275,0.32625 0.0937,0.61 0.0937,0.90625 0,0.2975 -0.0663,0.58 -0.0937,0.875 1.69,-0.1775 3.50375,-0.34375 6.5,-0.34375 l 0,18.875 c 0.41375,-0.03 0.83625,-0.0312 1.28125,-0.0312 0.41375,0 0.83875,0.001 1.3125,0.0312 l 0,-18.875 c 2.63875,0 4.7025,0.16625 6.1875,0.34375 -0.0288,-0.295 -0.0625,-0.5775 -0.0625,-0.875 0,-0.29625 0.0337,-0.58 0.0625,-0.90625 l -15.28125,0 z m 26.96875,0 0,11.84375 c 0.03,2.37125 0.26375,5.03125 2.125,6.71875 1.5425,1.38875 3.49625,2.0625 6.4375,2.0625 5.22875,0 8.6875,-2.97625 8.6875,-8.84375 l 0,-11.78125 c -0.3,0.03 -0.57625,0.0625 -0.84375,0.0625 -0.29875,0 -0.57875,-0.0325 -0.84375,-0.0625 l 0,11.0625 c 0,4.80125 -1.68375,8.1875 -6.40625,8.1875 -5.08,0 -6.5625,-2.69 -6.5625,-7.90625 l 0,-11.34375 c -0.47375,0.03 -0.9,0.0625 -1.3125,0.0625 -0.445,0 -0.8675,-0.0325 -1.28125,-0.0625 z m 23.71875,0 0,20.25 c 0.2675,-0.03 0.54625,-0.0625 0.84375,-0.0625 0.27,0 0.545,0.0325 0.84375,0.0625 l 0,-15.96875 0.28125,0 12.8125,14.1875 c 0.62,0.68 1.20375,1.36875 1.53125,1.78125 l 0.90625,0 0,-20.25 c -0.29875,0.03 -0.575,0.0625 -0.84375,0.0625 -0.3,0 -0.5475,-0.0325 -0.8125,-0.0625 l 0,15.25 -0.3125,0 -14.09375,-15.25 -1.15625,0 z m 23.40625,0 0,20.25 c 0.415,-0.03 0.86875,-0.0625 1.3125,-0.0625 0.415,0 0.84,0.0325 1.3125,0.0625 l 0,-20.25 c -0.4725,0.03 -0.8975,0.0625 -1.3125,0.0625 -0.44375,0 -0.8975,-0.0325 -1.3125,-0.0625 z m 6.59375,0 c 1.305,2.51125 5.6475,13.295 9.03125,20.25 0.20875,-0.03 0.41625,-0.0625 0.625,-0.0625 0.1775,0 0.385,0.0325 0.59375,0.0625 1.0675,-3.28 7.645,-18.45 8.59375,-20.25 -0.38625,0.03 -0.76875,0.0625 -1.09375,0.0625 -0.38625,0 -0.7375,-0.0325 -1.09375,-0.0625 l -0.1875,0.46875 -1.78125,4.9375 -3.125,8.03125 c -0.47375,1.215 -1.09,2.37875 -1.65625,3.59375 l -0.28125,0 -3.65625,-8.96875 -1.96875,-5.1875 c -0.3575,-0.9775 -0.70875,-1.9625 -1.09375,-2.875 -0.53625,0.03 -0.995,0.0625 -1.46875,0.0625 -0.475,0 -0.99375,-0.0325 -1.4375,-0.0625 z m 22.21875,0 0,20.1875 10.6875,0 c -0.0275,-0.29625 -0.0625,-0.57875 -0.0625,-0.875 0,-0.295 0.035,-0.57875 0.0625,-0.90625 -0.91875,0.14875 -1.7975,0.25125 -2.71875,0.28125 -1.77875,0.06 -3.565,0.15375 -5.375,0.0937 l 0,-8.65625 4.59375,0 c 0.89,0 1.76625,0.125 2.65625,0.15625 -0.0312,-0.3275 -0.0625,-0.60625 -0.0625,-0.84375 0,-0.26625 0.0312,-0.5125 0.0625,-0.75 -0.89,0.0288 -1.76625,0.125 -2.65625,0.125 l -4.59375,0 0,-7.40625 2.28125,0 2.96875,0.0625 c 0.89125,0.0575 1.7975,0.135 2.6875,0.3125 -0.03,-0.295 -0.0937,-0.57875 -0.0937,-0.875 0,-0.295 0.0638,-0.58 0.0937,-0.90625 l -10.53125,0 z m 15.34375,0 0,20.25 c 0.41375,-0.03 0.87,-0.0625 1.3125,-0.0625 0.415,0 0.8075,0.0325 1.28125,0.0625 l 0,-9.875 1.125,0 2.375,2.78125 3.5,4.53125 c 0.625,0.83 1.2225,1.65 1.875,2.5625 0.53125,-0.03 1.1225,-0.0625 1.6875,-0.0625 0.5625,0 1.0975,0.0325 1.71875,0.0625 l -0.5625,-0.71875 -1.40625,-1.65625 -6.125,-7.71875 c 2.99875,-0.53375 6.09375,-2.2175 6.09375,-5.65625 0,-2.995 -2.0225,-4.5 -6.59375,-4.5 l -6.28125,0 z m 34.0625,0 0,20.25 c 0.41375,-0.03 0.8375,-0.0625 1.28125,-0.0625 0.41375,0 0.84,0.0325 1.3125,0.0625 l 0,-20.25 c -0.4725,0.03 -0.89875,0.0625 -1.3125,0.0625 -0.44375,0 -0.8675,-0.0325 -1.28125,-0.0625 z m 6.5,0 c 0.0312,0.32625 0.0625,0.61 0.0625,0.90625 0,0.2975 -0.0312,0.57875 -0.0625,0.875 1.6925,-0.1775 3.505,-0.34375 6.5,-0.34375 l 0,18.875 c 0.415,-0.03 0.8375,-0.0312 1.28125,-0.0312 0.41375,0 0.84,0.001 1.3125,0.0312 l 0,-18.875 c 2.63875,0 4.70375,0.16625 6.1875,0.34375 -0.0312,-0.29625 -0.0625,-0.5775 -0.0625,-0.875 0,-0.29625 0.0312,-0.58 0.0625,-0.90625 l -15.28125,0 z m 37.21875,0 c 0.03,0.32625 0.0937,0.61 0.0937,0.90625 0,0.2975 -0.0638,0.57875 -0.0937,0.875 1.69,-0.1775 3.5025,-0.34375 6.5,-0.34375 l 0,18.875 c 0.4125,-0.03 0.8675,-0.0312 1.3125,-0.0312 0.41375,0 0.81,0.001 1.28125,0.0312 l 0,-18.875 c 2.64125,0 4.7375,0.16625 6.21875,0.34375 -0.0287,-0.29625 -0.0937,-0.5775 -0.0937,-0.875 0,-0.29625 0.065,-0.58 0.0937,-0.90625 l -15.3125,0 z m -368.03125,0.53125 c 2.36875,0 4.675,1.00875 6.15625,2.875 1.53875,1.98625 1.84375,4.07125 1.84375,6.53125 0.20875,3.2575 -2.0325,9.71875 -8.28125,9.71875 -4.41,0 -8.0625,-3.14125 -8.0625,-9.15625 0,-6.015 3.13375,-9.96875 8.34375,-9.96875 z m 20.1875,0.5 c 0.79813,-0.007 1.575,0.005 2.125,0.0937 2.2275,0.35625 3.25,1.70375 3.25,3.75 0,2.3125 -1.615,3.77375 -3.78125,4.21875 -1.515,0.29625 -3.4275,0.18625 -3.84375,0.15625 l 0,-8.15625 c 0.62375,-0.0294 1.45187,-0.0552 2.25,-0.0625 z m 274.90625,0 c 0.79766,-0.007 1.575,0.005 2.125,0.0937 2.2275,0.35625 3.25,1.70375 3.25,3.75 0,2.3125 -1.61375,3.77375 -3.78125,4.21875 -1.515,0.29625 -3.4275,0.18625 -3.84375,0.15625 l 0,-8.15625 c 0.62437,-0.0294 1.45234,-0.0552 2.25,-0.0625 z m -220.5625,2.40625 3.28125,7.59375 -6.53125,0 3.25,-7.59375 z m 282,0 3.28125,7.59375 -6.5,0 3.21875,-7.59375 z m -300.5,9.25 0,1.875 7.40625,0 0,-1.875 -7.40625,0 z m 131,0 0,1.875 7.4375,0 0,-1.875 -7.4375,0 z m -205.0625,22.8125 c -0.7425,0 -1.375,0.66 -1.375,1.375 0,0.71375 0.66,1.375 1.375,1.375 0.715,0 1.34375,-0.63 1.34375,-1.375 0,-0.74375 -0.5975,-1.375 -1.34375,-1.375 z m 5.8125,0 c -0.745,0 -1.375,0.66 -1.375,1.375 0,0.71375 0.65875,1.375 1.375,1.375 0.7125,0 1.34375,-0.66125 1.34375,-1.375 0,-0.715 -0.59875,-1.375 -1.34375,-1.375 z m -25.71875,4.59375 c -6.57875,0 -11.5625,3.6475 -11.5625,10.5625 0,5.99625 3.4725,10.46875 10.96875,10.46875 2.75375,0 5.45875,-0.48375 8.03125,-1.375 l 0,-8.375 c -0.4725,0.03 -0.86625,0.0937 -1.28125,0.0937 -0.4425,0 -0.8975,-0.0638 -1.3125,-0.0937 l 0,7.59375 c -1.36,0.71 -3.025,1 -4.625,1 -5.83625,0 -8.84375,-3.6225 -8.84375,-9.46875 0,-5.9675 3.495,-9.28125 8.53125,-9.28125 2.51875,0 5.00125,0.985 6.65625,2.875 l 0.3125,0 c 0.20625,-0.76875 0.42,-1.545 0.6875,-2.28125 -0.65125,-0.415 -3.14875,-1.71875 -7.5625,-1.71875 z m 22.6875,0 c -6.12875,0 -10.96875,4.07125 -10.96875,10.5625 0,6.33875 4.365,10.46875 10.90625,10.46875 6.6025,0 11.28125,-4.33125 11.28125,-10.9375 0,-7.11125 -5.6525,-10.09375 -11.21875,-10.09375 z m 94.40625,0 c -6.5775,0 -11.5625,3.6475 -11.5625,10.5625 0,5.99625 3.44125,10.46875 10.9375,10.46875 2.755,0 5.48875,-0.48375 8.0625,-1.375 l 0,-8.375 c -0.47375,0.03 -0.8975,0.0937 -1.3125,0.0937 -0.44375,0 -0.8675,-0.0638 -1.28125,-0.0937 l 0,7.59375 c -1.36125,0.71 -3.02625,1 -4.625,1 -5.83875,0 -8.875,-3.6225 -8.875,-9.46875 0,-5.9675 3.49625,-9.28125 8.53125,-9.28125 2.51875,0 5.03,0.985 6.6875,2.875 l 0.3125,0 c 0.205,-0.76875 0.41875,-1.545 0.6875,-2.28125 -0.65125,-0.415 -3.14875,-1.71875 -7.5625,-1.71875 z m -80.5,0.40625 c 0.03,0.32375 0.0937,0.61 0.0937,0.90625 0,0.29875 -0.0638,0.58 -0.0937,0.875 1.6925,-0.17875 3.50375,-0.34375 6.5,-0.34375 l 0,18.875 c 0.41375,-0.0287 0.86875,-0.0312 1.3125,-0.0312 0.41375,0 0.80875,0.003 1.28125,0.0312 l 0,-18.875 c 2.64125,0 4.73375,0.165 6.21875,0.34375 -0.0312,-0.295 -0.0625,-0.57625 -0.0625,-0.875 0,-0.29625 0.0312,-0.5825 0.0625,-0.90625 l -15.3125,0 z m 17.34375,0 c 0.0288,0.32375 0.0625,0.61 0.0625,0.90625 0,0.29875 -0.0337,0.58 -0.0625,0.875 1.69125,-0.17875 3.4725,-0.34375 6.46875,-0.34375 l 0,18.875 c 0.41375,-0.0287 0.86875,-0.0312 1.3125,-0.0312 0.41375,0 0.8375,0.003 1.3125,0.0312 l 0,-18.875 c 2.64,0 4.70375,0.165 6.1875,0.34375 -0.0312,-0.295 -0.0625,-0.57625 -0.0625,-0.875 0,-0.29625 0.0325,-0.5825 0.0625,-0.90625 l -15.28125,0 z m 19.53125,0 0,20.25 c 0.41125,-0.0275 0.86875,-0.0625 1.3125,-0.0625 0.415,0 0.80875,0.035 1.28125,0.0625 l 0,-20.25 c -0.4725,0.0312 -0.86625,0.0937 -1.28125,0.0937 -0.44375,0 -0.90125,-0.0625 -1.3125,-0.0937 z m 9.21875,0 0,20.25 c 0.2675,-0.0275 0.545,-0.0625 0.84375,-0.0625 0.26625,0 0.515,0.035 0.8125,0.0625 l 0,-15.9375 0.3125,0 12.8125,14.15625 c 0.62375,0.68125 1.20375,1.37 1.53125,1.78125 l 0.90625,0 0,-20.25 c -0.29625,0.0312 -0.575,0.0937 -0.84375,0.0937 -0.29875,0 -0.54375,-0.0625 -0.8125,-0.0937 l 0,15.25 -0.3125,0 -14.09375,-15.25 -1.15625,0 z m 47.5,0 0,20.1875 10.6875,0 c -0.0275,-0.295 -0.0625,-0.58 -0.0625,-0.875 0,-0.295 0.035,-0.57875 0.0625,-0.90625 -0.9175,0.1475 -1.8,0.25125 -2.71875,0.28125 -1.78,0.0612 -3.565,0.1825 -5.375,0.125 l 0,-8.6875 4.59375,0 c 0.89125,0 1.7675,0.1275 2.65625,0.15625 -0.03,-0.32625 -0.0937,-0.60625 -0.0937,-0.84375 0,-0.2675 0.0638,-0.51375 0.0937,-0.75 -0.88875,0.0287 -1.765,0.125 -2.65625,0.125 l -4.59375,0 0,-7.40625 2.28125,0 2.96875,0.0625 c 0.89125,0.0612 1.8,0.13625 2.6875,0.3125 -0.0275,-0.295 -0.0937,-0.5775 -0.0937,-0.875 0,-0.295 0.0663,-0.58125 0.0937,-0.90625 l -10.53125,0 z m 15.96875,0 0,20.25 c 0.27,-0.0275 0.545,-0.0625 0.84375,-0.0625 0.2675,0 0.5475,0.035 0.84375,0.0625 l 0,-15.9375 0.28125,0 12.8125,14.15625 c 0.62125,0.68125 1.235,1.37 1.5625,1.78125 l 0.875,0 0,-20.25 c -0.2975,0.0312 -0.5425,0.0937 -0.8125,0.0937 -0.2975,0 -0.5775,-0.0625 -0.84375,-0.0937 l 0,15.25 -0.3125,0 -14.0625,-15.25 -1.1875,0 z m -123.1875,0.53125 c 2.3675,0 4.67625,1.00875 6.15625,2.875 1.54,1.98625 1.875,4.06875 1.875,6.53125 0.21,3.255 -2.035,9.71875 -8.28125,9.71875 -4.40875,0 -8.09375,-3.1425 -8.09375,-9.15625 0,-6.01375 3.1325,-9.96875 8.34375,-9.96875 z"
       id="path36"
       style="fill:#231f20;fill-opacity:1;fill-rule:nonzero;stroke:none" />
  </g>
</svg>
