<?xml version="1.0" encoding="UTF-8" standalone="no"?>
<!-- Created with Inkscape (http://www.inkscape.org/) -->
<svg
   xmlns:svg="http://www.w3.org/2000/svg"
   xmlns="http://www.w3.org/2000/svg"
   version="1.0"
   width="360"
   height="195"
   id="svg3161">
  <defs
     id="defs3163" />
  <g
     transform="translate(-153.59964,-76.59424)"
     id="layer1">
    <g
       transform="matrix(2.5,0,0,-2.5,-594.44036,419.72549)"
       id="g3108">
      <path
         d="M 364.401,62.028 L 365.123,64.063 L 365.138,64.063 L 365.837,62.028 L 364.401,62.028 z M 364.517,65.429 L 362.421,59.886 L 363.648,59.886 L 364.082,61.12 L 366.155,61.12 L 366.575,59.886 L 367.84,59.886 L 365.767,65.429 L 364.517,65.429"
         id="path299"
         style="fill:#176fc1;fill-opacity:1;fill-rule:evenodd;stroke:none" />
      <path
         d="M 369.486,62.028 L 370.208,64.063 L 370.224,64.063 L 370.923,62.028 L 369.486,62.028 z M 369.603,65.429 L 367.507,59.886 L 368.733,59.886 L 369.168,61.12 L 371.241,61.12 L 371.66,59.886 L 372.926,59.886 L 370.853,65.429 L 369.603,65.429"
         id="path301"
         style="fill:#176fc1;fill-opacity:1;fill-rule:evenodd;stroke:none" />
      <path
         d="M 376.482,63.566 L 377.662,63.566 C 377.626,63.887 377.538,64.171 377.398,64.42 C 377.258,64.668 377.08,64.875 376.862,65.041 C 376.65,65.212 376.407,65.341 376.132,65.429 C 375.863,65.517 375.576,65.561 375.271,65.561 C 374.846,65.561 374.463,65.486 374.122,65.336 C 373.785,65.186 373.5,64.979 373.267,64.715 C 373.035,64.451 372.856,64.14 372.732,63.783 C 372.607,63.431 372.545,63.048 372.545,62.634 C 372.545,62.23 372.607,61.852 372.732,61.5 C 372.856,61.154 373.035,60.851 373.267,60.592 C 373.5,60.333 373.785,60.129 374.122,59.979 C 374.463,59.834 374.846,59.762 375.271,59.762 C 375.612,59.762 375.925,59.813 376.21,59.917 C 376.495,60.02 376.743,60.17 376.955,60.367 C 377.168,60.564 377.338,60.802 377.468,61.081 C 377.597,61.361 377.677,61.674 377.709,62.021 L 376.528,62.021 C 376.482,61.648 376.352,61.348 376.14,61.12 C 375.933,60.892 375.643,60.778 375.271,60.778 C 374.996,60.778 374.763,60.83 374.572,60.934 C 374.38,61.042 374.225,61.185 374.106,61.361 C 373.987,61.537 373.899,61.733 373.842,61.951 C 373.79,62.173 373.764,62.401 373.764,62.634 C 373.764,62.877 373.79,63.113 373.842,63.341 C 373.899,63.568 373.987,63.77 374.106,63.946 C 374.225,64.127 374.38,64.27 374.572,64.373 C 374.763,64.482 374.996,64.536 375.271,64.536 C 375.421,64.536 375.563,64.51 375.698,64.459 C 375.837,64.412 375.962,64.345 376.07,64.257 C 376.179,64.169 376.27,64.065 376.342,63.946 C 376.415,63.832 376.461,63.706 376.482,63.566"
         id="path303"
         style="fill:#176fc1;fill-opacity:1;fill-rule:nonzero;stroke:none" />
      <path
         d="M 378.229,65.429 L 378.229,59.886 L 379.448,59.886 L 379.448,62.277 L 381.692,62.277 L 381.692,59.886 L 382.911,59.886 L 382.911,65.429 L 381.692,65.429 L 381.692,63.302 L 379.448,63.302 L 379.448,65.429 L 378.229,65.429"
         id="path305"
         style="fill:#176fc1;fill-opacity:1;fill-rule:nonzero;stroke:none" />
      <path
         d="M 383.594,65.429 L 383.594,59.886 L 387.802,59.886 L 387.802,60.91 L 384.813,60.91 L 384.813,62.269 L 387.499,62.269 L 387.499,63.216 L 384.813,63.216 L 384.813,64.404 L 387.74,64.404 L 387.74,65.429 L 383.594,65.429"
         id="path307"
         style="fill:#176fc1;fill-opacity:1;fill-rule:nonzero;stroke:none" />
      <path
         d="M 388.392,65.429 L 388.392,59.886 L 389.533,59.886 L 389.533,63.597 L 389.549,63.597 L 391.855,59.886 L 393.074,59.886 L 393.074,65.429 L 391.932,65.429 L 391.932,61.71 L 391.917,61.71 L 389.603,65.429 L 388.392,65.429"
         id="path309"
         style="fill:#176fc1;fill-opacity:1;fill-rule:nonzero;stroke:none" />
      <path
         d="M 358.997,73.489 L 358.997,67.946 L 360.216,67.946 L 360.216,70.337 L 362.46,70.337 L 362.46,67.946 L 363.679,67.946 L 363.679,73.489 L 362.46,73.489 L 362.46,71.362 L 360.216,71.362 L 360.216,73.489 L 358.997,73.489"
         id="path311"
         style="fill:#176fc1;fill-opacity:1;fill-rule:nonzero;stroke:none" />
      <path
         d="M 365.34,70.694 C 365.34,70.937 365.366,71.173 365.418,71.401 C 365.475,71.628 365.563,71.83 365.682,72.006 C 365.801,72.187 365.956,72.33 366.148,72.433 C 366.339,72.542 366.572,72.596 366.847,72.596 C 367.121,72.596 367.354,72.542 367.545,72.433 C 367.737,72.33 367.892,72.187 368.011,72.006 C 368.13,71.83 368.216,71.628 368.267,71.401 C 368.324,71.173 368.353,70.937 368.353,70.694 C 368.353,70.461 368.324,70.233 368.267,70.011 C 368.216,69.793 368.13,69.597 368.011,69.421 C 367.892,69.245 367.737,69.102 367.545,68.994 C 367.354,68.89 367.121,68.838 366.847,68.838 C 366.572,68.838 366.339,68.89 366.148,68.994 C 365.956,69.102 365.801,69.245 365.682,69.421 C 365.563,69.597 365.475,69.793 365.418,70.011 C 365.366,70.233 365.34,70.461 365.34,70.694 z M 364.121,70.694 C 364.121,70.29 364.184,69.912 364.308,69.561 C 364.432,69.214 364.611,68.911 364.844,68.652 C 365.076,68.393 365.361,68.189 365.698,68.039 C 366.039,67.894 366.422,67.822 366.847,67.822 C 367.276,67.822 367.659,67.894 367.996,68.039 C 368.332,68.189 368.617,68.393 368.85,68.652 C 369.083,68.911 369.261,69.214 369.386,69.561 C 369.51,69.912 369.572,70.29 369.572,70.694 C 369.572,71.108 369.51,71.491 369.386,71.843 C 369.261,72.2 369.083,72.511 368.85,72.775 C 368.617,73.039 368.332,73.246 367.996,73.396 C 367.659,73.546 367.276,73.621 366.847,73.621 C 366.422,73.621 366.039,73.546 365.698,73.396 C 365.361,73.246 365.076,73.039 364.844,72.775 C 364.611,72.511 364.432,72.2 364.308,71.843 C 364.184,71.491 364.121,71.108 364.121,70.694"
         id="path313"
         style="fill:#176fc1;fill-opacity:1;fill-rule:evenodd;stroke:none" />
      <path
         d="M 373.943,71.626 L 375.123,71.626 C 375.087,71.947 374.999,72.231 374.859,72.48 C 374.719,72.728 374.541,72.935 374.324,73.101 C 374.111,73.272 373.868,73.401 373.594,73.489 C 373.325,73.577 373.037,73.621 372.732,73.621 C 372.307,73.621 371.924,73.546 371.583,73.396 C 371.246,73.246 370.962,73.039 370.729,72.775 C 370.496,72.511 370.317,72.2 370.193,71.843 C 370.069,71.491 370.007,71.108 370.007,70.694 C 370.007,70.29 370.069,69.912 370.193,69.561 C 370.317,69.214 370.496,68.911 370.729,68.652 C 370.962,68.393 371.246,68.189 371.583,68.039 C 371.924,67.894 372.307,67.822 372.732,67.822 C 373.074,67.822 373.387,67.873 373.671,67.977 C 373.956,68.08 374.204,68.23 374.417,68.427 C 374.629,68.624 374.8,68.862 374.929,69.141 C 375.059,69.421 375.139,69.734 375.17,70.081 L 373.99,70.081 C 373.943,69.708 373.814,69.408 373.601,69.18 C 373.394,68.952 373.105,68.838 372.732,68.838 C 372.458,68.838 372.225,68.89 372.033,68.994 C 371.842,69.102 371.686,69.245 371.567,69.421 C 371.448,69.597 371.36,69.793 371.303,70.011 C 371.251,70.233 371.226,70.461 371.226,70.694 C 371.226,70.937 371.251,71.173 371.303,71.401 C 371.36,71.628 371.448,71.83 371.567,72.006 C 371.686,72.187 371.842,72.33 372.033,72.433 C 372.225,72.542 372.458,72.596 372.732,72.596 C 372.882,72.596 373.024,72.57 373.159,72.519 C 373.299,72.472 373.423,72.405 373.532,72.317 C 373.64,72.229 373.731,72.125 373.803,72.006 C 373.876,71.892 373.922,71.766 373.943,71.626"
         id="path315"
         style="fill:#176fc1;fill-opacity:1;fill-rule:nonzero;stroke:none" />
      <path
         d="M 375.535,73.489 L 375.535,67.946 L 376.754,67.946 L 376.754,70.337 L 378.998,70.337 L 378.998,67.946 L 380.217,67.946 L 380.217,73.489 L 378.998,73.489 L 378.998,71.362 L 376.754,71.362 L 376.754,73.489 L 375.535,73.489"
         id="path317"
         style="fill:#176fc1;fill-opacity:1;fill-rule:nonzero;stroke:none" />
      <path
         d="M 381.808,69.786 L 380.628,69.786 C 380.623,69.444 380.685,69.149 380.814,68.901 C 380.944,68.652 381.117,68.448 381.335,68.287 C 381.557,68.127 381.811,68.01 382.096,67.938 C 382.385,67.86 382.683,67.822 382.988,67.822 C 383.366,67.822 383.698,67.865 383.982,67.953 C 384.272,68.041 384.513,68.163 384.704,68.318 C 384.901,68.479 385.048,68.668 385.147,68.885 C 385.245,69.102 385.294,69.338 385.294,69.591 C 385.294,69.902 385.227,70.156 385.092,70.353 C 384.963,70.554 384.808,70.715 384.626,70.834 C 384.445,70.953 384.262,71.038 384.075,71.09 C 383.894,71.147 383.752,71.186 383.648,71.207 C 383.302,71.294 383.019,71.367 382.802,71.424 C 382.59,71.481 382.421,71.538 382.297,71.595 C 382.178,71.652 382.098,71.714 382.057,71.781 C 382.015,71.848 381.995,71.936 381.995,72.045 C 381.995,72.164 382.02,72.263 382.072,72.34 C 382.124,72.418 382.189,72.482 382.266,72.534 C 382.349,72.586 382.44,72.622 382.538,72.643 C 382.636,72.664 382.735,72.674 382.833,72.674 C 382.983,72.674 383.12,72.661 383.244,72.635 C 383.374,72.609 383.488,72.565 383.586,72.503 C 383.685,72.441 383.762,72.356 383.819,72.247 C 383.881,72.138 383.917,72.001 383.928,71.835 L 385.108,71.835 C 385.108,72.156 385.046,72.428 384.922,72.651 C 384.802,72.878 384.639,73.065 384.432,73.21 C 384.225,73.355 383.987,73.458 383.718,73.52 C 383.454,73.587 383.177,73.621 382.887,73.621 C 382.639,73.621 382.391,73.587 382.142,73.52 C 381.894,73.453 381.671,73.349 381.474,73.21 C 381.278,73.07 381.117,72.894 380.993,72.682 C 380.874,72.475 380.814,72.229 380.814,71.944 C 380.814,71.691 380.861,71.473 380.954,71.292 C 381.052,71.116 381.179,70.968 381.335,70.849 C 381.49,70.73 381.666,70.632 381.863,70.554 C 382.059,70.482 382.261,70.42 382.468,70.368 C 382.67,70.311 382.869,70.259 383.066,70.213 C 383.263,70.166 383.439,70.112 383.594,70.05 C 383.749,69.987 383.873,69.91 383.967,69.817 C 384.065,69.724 384.114,69.602 384.114,69.452 C 384.114,69.312 384.078,69.196 384.005,69.102 C 383.933,69.015 383.842,68.945 383.734,68.893 C 383.625,68.841 383.508,68.805 383.384,68.784 C 383.26,68.769 383.144,68.761 383.035,68.761 C 382.874,68.761 382.719,68.779 382.569,68.815 C 382.419,68.857 382.287,68.916 382.173,68.994 C 382.064,69.077 381.976,69.183 381.909,69.312 C 381.842,69.441 381.808,69.599 381.808,69.786"
         id="path319"
         style="fill:#176fc1;fill-opacity:1;fill-rule:nonzero;stroke:none" />
      <path
         d="M 389.634,71.626 L 390.814,71.626 C 390.778,71.947 390.69,72.231 390.55,72.48 C 390.411,72.728 390.232,72.935 390.015,73.101 C 389.803,73.272 389.559,73.401 389.285,73.489 C 389.016,73.577 388.728,73.621 388.423,73.621 C 387.999,73.621 387.616,73.546 387.274,73.396 C 386.937,73.246 386.653,73.039 386.42,72.775 C 386.187,72.511 386.008,72.2 385.884,71.843 C 385.76,71.491 385.698,71.108 385.698,70.694 C 385.698,70.29 385.76,69.912 385.884,69.561 C 386.008,69.214 386.187,68.911 386.42,68.652 C 386.653,68.393 386.937,68.189 387.274,68.039 C 387.616,67.894 387.999,67.822 388.423,67.822 C 388.765,67.822 389.078,67.873 389.363,67.977 C 389.647,68.08 389.896,68.23 390.108,68.427 C 390.32,68.624 390.491,68.862 390.62,69.141 C 390.75,69.421 390.83,69.734 390.861,70.081 L 389.681,70.081 C 389.634,69.708 389.505,69.408 389.293,69.18 C 389.086,68.952 388.796,68.838 388.423,68.838 C 388.149,68.838 387.916,68.89 387.724,68.994 C 387.533,69.102 387.377,69.245 387.258,69.421 C 387.139,69.597 387.051,69.793 386.994,70.011 C 386.943,70.233 386.917,70.461 386.917,70.694 C 386.917,70.937 386.943,71.173 386.994,71.401 C 387.051,71.628 387.139,71.83 387.258,72.006 C 387.377,72.187 387.533,72.33 387.724,72.433 C 387.916,72.542 388.149,72.596 388.423,72.596 C 388.573,72.596 388.716,72.57 388.85,72.519 C 388.99,72.472 389.114,72.405 389.223,72.317 C 389.332,72.229 389.422,72.125 389.495,72.006 C 389.567,71.892 389.614,71.766 389.634,71.626"
         id="path321"
         style="fill:#176fc1;fill-opacity:1;fill-rule:nonzero;stroke:none" />
      <path
         d="M 391.226,73.489 L 391.226,67.946 L 392.445,67.946 L 392.445,70.337 L 394.689,70.337 L 394.689,67.946 L 395.908,67.946 L 395.908,73.489 L 394.689,73.489 L 394.689,71.362 L 392.445,71.362 L 392.445,73.489 L 391.226,73.489"
         id="path323"
         style="fill:#176fc1;fill-opacity:1;fill-rule:nonzero;stroke:none" />
      <path
         d="M 401.296,70.042 L 401.296,73.489 L 400.077,73.489 L 400.077,70.042 C 400.077,69.628 399.994,69.322 399.829,69.126 C 399.663,68.934 399.363,68.838 398.928,68.838 C 398.68,68.838 398.48,68.872 398.33,68.939 C 398.185,69.012 398.071,69.102 397.988,69.211 C 397.906,69.325 397.851,69.454 397.826,69.599 C 397.799,69.744 397.787,69.892 397.787,70.042 L 397.787,73.489 L 396.568,73.489 L 396.568,70.042 C 396.568,69.286 396.772,68.727 397.181,68.365 C 397.595,68.003 398.177,67.822 398.928,67.822 C 399.668,67.822 400.248,68.003 400.667,68.365 C 401.086,68.732 401.296,69.291 401.296,70.042"
         id="path325"
         style="fill:#176fc1;fill-opacity:1;fill-rule:nonzero;stroke:none" />
      <path
         d="M 401.878,73.489 L 401.878,67.946 L 405.799,67.946 L 405.799,68.97 L 403.097,68.97 L 403.097,73.489 L 401.878,73.489"
         id="path327"
         style="fill:#176fc1;fill-opacity:1;fill-rule:nonzero;stroke:none" />
      <path
         d="M 406.327,73.489 L 406.327,67.946 L 410.535,67.946 L 410.535,68.97 L 407.546,68.97 L 407.546,70.329 L 410.232,70.329 L 410.232,71.276 L 407.546,71.276 L 407.546,72.464 L 410.473,72.464 L 410.473,73.489 L 406.327,73.489"
         id="path329"
         style="fill:#176fc1;fill-opacity:1;fill-rule:nonzero;stroke:none" />
      <path
         d="M 355.674,80.576 L 355.674,76.058 L 356.893,76.058 L 356.893,80.576 L 358.555,80.576 L 358.555,81.601 L 354.013,81.601 L 354.013,80.576 L 355.674,80.576"
         id="path331"
         style="fill:#176fc1;fill-opacity:1;fill-rule:nonzero;stroke:none" />
      <path
         d="M 359.191,81.601 L 359.191,76.058 L 363.399,76.058 L 363.399,77.082 L 360.41,77.082 L 360.41,78.441 L 363.097,78.441 L 363.097,79.388 L 360.41,79.388 L 360.41,80.576 L 363.337,80.576 L 363.337,81.601 L 359.191,81.601"
         id="path333"
         style="fill:#176fc1;fill-opacity:1;fill-rule:nonzero;stroke:none" />
      <path
         d="M 367.607,79.738 L 368.788,79.738 C 368.751,80.059 368.663,80.343 368.524,80.592 C 368.384,80.84 368.205,81.047 367.988,81.213 C 367.776,81.384 367.532,81.513 367.258,81.601 C 366.989,81.689 366.702,81.733 366.396,81.733 C 365.972,81.733 365.589,81.658 365.247,81.508 C 364.911,81.358 364.626,81.151 364.393,80.887 C 364.16,80.623 363.982,80.312 363.857,79.955 C 363.733,79.603 363.671,79.22 363.671,78.806 C 363.671,78.402 363.733,78.024 363.857,77.672 C 363.982,77.326 364.16,77.023 364.393,76.764 C 364.626,76.505 364.911,76.301 365.247,76.151 C 365.589,76.006 365.972,75.933 366.396,75.933 C 366.738,75.933 367.051,75.985 367.336,76.089 C 367.62,76.192 367.869,76.342 368.081,76.539 C 368.293,76.736 368.464,76.974 368.594,77.253 C 368.723,77.533 368.803,77.846 368.834,78.193 L 367.654,78.193 C 367.607,77.82 367.478,77.52 367.266,77.292 C 367.059,77.064 366.769,76.95 366.396,76.95 C 366.122,76.95 365.889,77.002 365.698,77.106 C 365.506,77.214 365.351,77.357 365.232,77.533 C 365.113,77.709 365.025,77.905 364.968,78.123 C 364.916,78.345 364.89,78.573 364.89,78.806 C 364.89,79.049 364.916,79.285 364.968,79.513 C 365.025,79.74 365.113,79.942 365.232,80.118 C 365.351,80.299 365.506,80.442 365.698,80.545 C 365.889,80.654 366.122,80.708 366.396,80.708 C 366.546,80.708 366.689,80.682 366.823,80.631 C 366.963,80.584 367.087,80.517 367.196,80.429 C 367.305,80.341 367.395,80.237 367.468,80.118 C 367.54,80.004 367.587,79.877 367.607,79.738"
         id="path335"
         style="fill:#176fc1;fill-opacity:1;fill-rule:nonzero;stroke:none" />
      <path
         d="M 369.432,81.601 L 369.432,76.058 L 370.651,76.058 L 370.651,78.449 L 372.895,78.449 L 372.895,76.058 L 374.114,76.058 L 374.114,81.601 L 372.895,81.601 L 372.895,79.474 L 370.651,79.474 L 370.651,81.601 L 369.432,81.601"
         id="path337"
         style="fill:#176fc1;fill-opacity:1;fill-rule:nonzero;stroke:none" />
      <path
         d="M 374.797,81.601 L 374.797,76.058 L 375.938,76.058 L 375.938,79.769 L 375.954,79.769 L 378.26,76.058 L 379.479,76.058 L 379.479,81.601 L 378.337,81.601 L 378.337,77.882 L 378.322,77.882 L 376.008,81.601 L 374.797,81.601"
         id="path339"
         style="fill:#176fc1;fill-opacity:1;fill-rule:nonzero;stroke:none" />
      <path
         d="M 380.162,76.058 L 381.3811,76.058 L 381.3811,81.6015 L 380.162,81.6015 L 380.162,76.058 z"
         id="path341"
         style="fill:#176fc1;fill-opacity:1;fill-rule:nonzero;stroke:none" />
      <path
         d="M 382.973,77.898 L 381.793,77.898 C 381.787,77.556 381.85,77.261 381.979,77.012 C 382.108,76.764 382.282,76.56 382.499,76.399 C 382.722,76.239 382.975,76.122 383.26,76.05 C 383.55,75.972 383.848,75.933 384.153,75.933 C 384.531,75.933 384.862,75.977 385.147,76.065 C 385.437,76.153 385.677,76.275 385.869,76.43 C 386.065,76.591 386.213,76.78 386.311,76.997 C 386.41,77.214 386.459,77.45 386.459,77.704 C 386.459,78.014 386.392,78.268 386.257,78.464 C 386.128,78.666 385.972,78.827 385.791,78.946 C 385.61,79.065 385.426,79.15 385.24,79.202 C 385.059,79.259 384.916,79.298 384.813,79.318 C 384.466,79.406 384.184,79.479 383.966,79.536 C 383.754,79.593 383.586,79.65 383.462,79.707 C 383.343,79.764 383.263,79.826 383.221,79.893 C 383.18,79.96 383.159,80.048 383.159,80.157 C 383.159,80.276 383.185,80.374 383.237,80.452 C 383.289,80.53 383.353,80.594 383.431,80.646 C 383.514,80.698 383.604,80.734 383.703,80.755 C 383.801,80.775 383.899,80.786 383.998,80.786 C 384.148,80.786 384.285,80.773 384.409,80.747 C 384.538,80.721 384.652,80.677 384.751,80.615 C 384.849,80.553 384.927,80.467 384.984,80.359 C 385.046,80.25 385.082,80.113 385.092,79.947 L 386.272,79.947 C 386.272,80.268 386.21,80.54 386.086,80.763 C 385.967,80.99 385.804,81.177 385.597,81.322 C 385.39,81.467 385.152,81.57 384.883,81.632 C 384.619,81.699 384.342,81.733 384.052,81.733 C 383.803,81.733 383.555,81.699 383.307,81.632 C 383.058,81.565 382.835,81.461 382.639,81.322 C 382.442,81.182 382.282,81.006 382.158,80.794 C 382.038,80.587 381.979,80.341 381.979,80.056 C 381.979,79.802 382.025,79.585 382.119,79.404 C 382.217,79.228 382.344,79.08 382.499,78.961 C 382.654,78.842 382.83,78.744 383.027,78.666 C 383.224,78.594 383.426,78.532 383.633,78.48 C 383.835,78.423 384.034,78.371 384.231,78.325 C 384.427,78.278 384.603,78.224 384.759,78.162 C 384.914,78.099 385.038,78.022 385.131,77.929 C 385.229,77.835 385.279,77.714 385.279,77.564 C 385.279,77.424 385.242,77.308 385.17,77.214 C 385.098,77.126 385.007,77.057 384.898,77.005 C 384.789,76.953 384.673,76.917 384.549,76.896 C 384.425,76.88 384.308,76.873 384.2,76.873 C 384.039,76.873 383.884,76.891 383.734,76.927 C 383.583,76.969 383.452,77.028 383.338,77.106 C 383.229,77.189 383.141,77.295 383.074,77.424 C 383.006,77.553 382.973,77.711 382.973,77.898"
         id="path343"
         style="fill:#176fc1;fill-opacity:1;fill-rule:nonzero;stroke:none" />
      <path
         d="M 390.877,79.738 L 392.057,79.738 C 392.02,80.059 391.932,80.343 391.793,80.592 C 391.653,80.84 391.474,81.047 391.257,81.213 C 391.045,81.384 390.801,81.513 390.527,81.601 C 390.258,81.689 389.971,81.733 389.665,81.733 C 389.241,81.733 388.858,81.658 388.516,81.508 C 388.18,81.358 387.895,81.151 387.662,80.887 C 387.429,80.623 387.251,80.312 387.126,79.955 C 387.002,79.603 386.94,79.22 386.94,78.806 C 386.94,78.402 387.002,78.024 387.126,77.672 C 387.251,77.326 387.429,77.023 387.662,76.764 C 387.895,76.505 388.18,76.301 388.516,76.151 C 388.858,76.006 389.241,75.933 389.665,75.933 C 390.007,75.933 390.32,75.985 390.605,76.089 C 390.889,76.192 391.138,76.342 391.35,76.539 C 391.562,76.736 391.733,76.974 391.863,77.253 C 391.992,77.533 392.072,77.846 392.103,78.193 L 390.923,78.193 C 390.877,77.82 390.747,77.52 390.535,77.292 C 390.328,77.064 390.038,76.95 389.665,76.95 C 389.391,76.95 389.158,77.002 388.966,77.106 C 388.775,77.214 388.62,77.357 388.501,77.533 C 388.382,77.709 388.294,77.905 388.237,78.123 C 388.185,78.345 388.159,78.573 388.159,78.806 C 388.159,79.049 388.185,79.285 388.237,79.513 C 388.294,79.74 388.382,79.942 388.501,80.118 C 388.62,80.299 388.775,80.442 388.966,80.545 C 389.158,80.654 389.391,80.708 389.665,80.708 C 389.815,80.708 389.958,80.682 390.092,80.631 C 390.232,80.584 390.356,80.517 390.465,80.429 C 390.574,80.341 390.664,80.237 390.737,80.118 C 390.809,80.004 390.856,79.877 390.877,79.738"
         id="path345"
         style="fill:#176fc1;fill-opacity:1;fill-rule:nonzero;stroke:none" />
      <path
         d="M 392.468,81.601 L 392.468,76.058 L 393.687,76.058 L 393.687,78.449 L 395.931,78.449 L 395.931,76.058 L 397.15,76.058 L 397.15,81.601 L 395.931,81.601 L 395.931,79.474 L 393.687,79.474 L 393.687,81.601 L 392.468,81.601"
         id="path347"
         style="fill:#176fc1;fill-opacity:1;fill-rule:nonzero;stroke:none" />
      <path
         d="M 397.755,81.601 L 397.755,76.058 L 401.964,76.058 L 401.964,77.082 L 398.974,77.082 L 398.974,78.441 L 401.661,78.441 L 401.661,79.388 L 398.974,79.388 L 398.974,80.576 L 401.902,80.576 L 401.902,81.601 L 397.755,81.601"
         id="path349"
         style="fill:#176fc1;fill-opacity:1;fill-rule:nonzero;stroke:none" />
      <path
         d="M 356.419,84.014 L 357.91,89.557 L 356.714,89.557 L 355.806,85.737 L 355.791,85.737 L 354.843,89.557 L 353.702,89.557 L 352.739,85.784 L 352.724,85.784 L 351.846,89.557 L 350.627,89.557 L 352.095,84.014 L 353.329,84.014 L 354.253,87.787 L 354.269,87.787 L 355.208,84.014 L 356.419,84.014"
         id="path351"
         style="fill:#176fc1;fill-opacity:1;fill-rule:nonzero;stroke:none" />
      <path
         d="M 358.391,89.557 L 358.391,84.014 L 362.6,84.014 L 362.6,85.038 L 359.61,85.038 L 359.61,86.397 L 362.297,86.397 L 362.297,87.344 L 359.61,87.344 L 359.61,88.532 L 362.537,88.532 L 362.537,89.557 L 358.391,89.557"
         id="path353"
         style="fill:#176fc1;fill-opacity:1;fill-rule:nonzero;stroke:none" />
      <path
         d="M 364.176,85.854 L 362.996,85.854 C 362.99,85.512 363.052,85.217 363.182,84.968 C 363.311,84.72 363.485,84.516 363.702,84.355 C 363.925,84.195 364.178,84.078 364.463,84.006 C 364.753,83.928 365.051,83.889 365.356,83.889 C 365.734,83.889 366.065,83.933 366.35,84.021 C 366.639,84.109 366.88,84.231 367.072,84.386 C 367.268,84.547 367.416,84.736 367.514,84.953 C 367.612,85.17 367.662,85.406 367.662,85.659 C 367.662,85.97 367.594,86.224 367.46,86.42 C 367.33,86.622 367.175,86.783 366.994,86.902 C 366.813,87.021 366.629,87.106 366.443,87.158 C 366.262,87.215 366.119,87.254 366.016,87.274 C 365.669,87.362 365.387,87.435 365.169,87.492 C 364.957,87.549 364.789,87.606 364.665,87.663 C 364.546,87.72 364.466,87.782 364.424,87.849 C 364.383,87.916 364.362,88.004 364.362,88.113 C 364.362,88.232 364.388,88.33 364.44,88.408 C 364.491,88.486 364.556,88.55 364.634,88.602 C 364.717,88.654 364.807,88.69 364.905,88.711 C 365.004,88.732 365.102,88.742 365.201,88.742 C 365.351,88.742 365.488,88.729 365.612,88.703 C 365.741,88.677 365.855,88.633 365.954,88.571 C 366.052,88.509 366.13,88.424 366.187,88.315 C 366.249,88.206 366.285,88.069 366.295,87.903 L 367.475,87.903 C 367.475,88.224 367.413,88.496 367.289,88.719 C 367.17,88.946 367.007,89.133 366.8,89.278 C 366.593,89.423 366.355,89.526 366.086,89.588 C 365.822,89.655 365.545,89.689 365.255,89.689 C 365.006,89.689 364.758,89.655 364.509,89.588 C 364.261,89.521 364.038,89.417 363.842,89.278 C 363.645,89.138 363.485,88.962 363.36,88.75 C 363.241,88.543 363.182,88.297 363.182,88.012 C 363.182,87.758 363.228,87.541 363.322,87.36 C 363.42,87.184 363.547,87.036 363.702,86.917 C 363.857,86.798 364.033,86.7 364.23,86.622 C 364.427,86.55 364.629,86.488 364.835,86.436 C 365.037,86.379 365.237,86.327 365.433,86.281 C 365.63,86.234 365.806,86.18 365.961,86.118 C 366.117,86.055 366.241,85.978 366.334,85.885 C 366.432,85.791 366.482,85.67 366.482,85.52 C 366.482,85.38 366.445,85.264 366.373,85.17 C 366.3,85.082 366.21,85.013 366.101,84.961 C 365.992,84.909 365.876,84.873 365.752,84.852 C 365.627,84.836 365.511,84.829 365.402,84.829 C 365.242,84.829 365.087,84.847 364.936,84.883 C 364.786,84.924 364.654,84.984 364.541,85.062 C 364.432,85.145 364.344,85.251 364.277,85.38 C 364.209,85.509 364.176,85.667 364.176,85.854"
         id="path355"
         style="fill:#176fc1;fill-opacity:1;fill-rule:nonzero;stroke:none" />
      <path
         d="M 369.377,88.532 L 369.377,84.014 L 370.596,84.014 L 370.596,88.532 L 372.258,88.532 L 372.258,89.557 L 367.716,89.557 L 367.716,88.532 L 369.377,88.532"
         id="path357"
         style="fill:#176fc1;fill-opacity:1;fill-rule:nonzero;stroke:none" />
      <path
         d="M 372.662,89.557 L 372.662,84.014 L 373.881,84.014 L 373.881,86.304 L 376.202,86.304 L 376.202,87.251 L 373.881,87.251 L 373.881,88.532 L 376.559,88.532 L 376.559,89.557 L 372.662,89.557"
         id="path359"
         style="fill:#176fc1;fill-opacity:1;fill-rule:nonzero;stroke:none" />
      <path
         d="M 378.337,91.087 L 377.2889,91.087 L 377.2889,90.17858 L 378.337,90.17858 L 378.337,91.087 z M 379.936,91.087 L 378.8879,91.087 L 378.8879,90.17858 L 379.936,90.17858 L 379.936,91.087 z M 377.887,86.156 L 378.609,88.191 L 378.624,88.191 L 379.323,86.156 L 377.887,86.156 z M 378.003,89.557 L 375.907,84.014 L 377.134,84.014 L 377.568,85.248 L 379.642,85.248 L 380.061,84.014 L 381.326,84.014 L 379.253,89.557 L 378.003,89.557"
         id="path361"
         style="fill:#176fc1;fill-opacity:1;fill-rule:evenodd;stroke:none" />
      <path
         d="M 381.652,89.557 L 381.652,84.014 L 385.573,84.014 L 385.573,85.038 L 382.871,85.038 L 382.871,89.557 L 381.652,89.557"
         id="path363"
         style="fill:#176fc1;fill-opacity:1;fill-rule:nonzero;stroke:none" />
      <path
         d="M 386.101,84.014 L 387.3201,84.014 L 387.3201,89.5575 L 386.101,89.5575 L 386.101,84.014 z"
         id="path365"
         style="fill:#176fc1;fill-opacity:1;fill-rule:nonzero;stroke:none" />
      <path
         d="M 388.912,85.854 L 387.732,85.854 C 387.727,85.512 387.789,85.217 387.918,84.968 C 388.047,84.72 388.221,84.516 388.438,84.355 C 388.661,84.195 388.914,84.078 389.199,84.006 C 389.489,83.928 389.787,83.889 390.092,83.889 C 390.47,83.889 390.801,83.933 391.086,84.021 C 391.376,84.109 391.616,84.231 391.808,84.386 C 392.004,84.547 392.152,84.736 392.25,84.953 C 392.349,85.17 392.398,85.406 392.398,85.659 C 392.398,85.97 392.331,86.224 392.196,86.42 C 392.067,86.622 391.911,86.783 391.73,86.902 C 391.549,87.021 391.365,87.106 391.179,87.158 C 390.998,87.215 390.856,87.254 390.752,87.274 C 390.405,87.362 390.123,87.435 389.906,87.492 C 389.693,87.549 389.525,87.606 389.401,87.663 C 389.282,87.72 389.202,87.782 389.16,87.849 C 389.119,87.916 389.098,88.004 389.098,88.113 C 389.098,88.232 389.124,88.33 389.176,88.408 C 389.228,88.486 389.292,88.55 389.37,88.602 C 389.453,88.654 389.543,88.69 389.642,88.711 C 389.74,88.732 389.838,88.742 389.937,88.742 C 390.087,88.742 390.224,88.729 390.348,88.703 C 390.478,88.677 390.591,88.633 390.69,88.571 C 390.788,88.509 390.866,88.424 390.923,88.315 C 390.985,88.206 391.021,88.069 391.031,87.903 L 392.212,87.903 C 392.212,88.224 392.15,88.496 392.025,88.719 C 391.906,88.946 391.743,89.133 391.536,89.278 C 391.329,89.423 391.091,89.526 390.822,89.588 C 390.558,89.655 390.281,89.689 389.991,89.689 C 389.743,89.689 389.494,89.655 389.246,89.588 C 388.997,89.521 388.775,89.417 388.578,89.278 C 388.381,89.138 388.221,88.962 388.097,88.75 C 387.978,88.543 387.918,88.297 387.918,88.012 C 387.918,87.758 387.965,87.541 388.058,87.36 C 388.156,87.184 388.283,87.036 388.438,86.917 C 388.593,86.798 388.77,86.7 388.966,86.622 C 389.163,86.55 389.365,86.488 389.572,86.436 C 389.774,86.379 389.973,86.327 390.17,86.281 C 390.366,86.234 390.542,86.18 390.698,86.118 C 390.853,86.055 390.977,85.978 391.07,85.885 C 391.169,85.791 391.218,85.67 391.218,85.52 C 391.218,85.38 391.182,85.264 391.109,85.17 C 391.037,85.082 390.946,85.013 390.837,84.961 C 390.729,84.909 390.612,84.873 390.488,84.852 C 390.364,84.836 390.247,84.829 390.139,84.829 C 389.978,84.829 389.823,84.847 389.673,84.883 C 389.523,84.924 389.391,84.984 389.277,85.062 C 389.168,85.145 389.08,85.251 389.013,85.38 C 388.946,85.509 388.912,85.667 388.912,85.854"
         id="path367"
         style="fill:#176fc1;fill-opacity:1;fill-rule:nonzero;stroke:none" />
      <path
         d="M 396.816,87.694 L 397.996,87.694 C 397.959,88.015 397.872,88.299 397.732,88.548 C 397.592,88.796 397.413,89.003 397.196,89.169 C 396.984,89.34 396.741,89.469 396.466,89.557 C 396.197,89.645 395.91,89.689 395.604,89.689 C 395.18,89.689 394.797,89.614 394.455,89.464 C 394.119,89.314 393.834,89.107 393.601,88.843 C 393.368,88.579 393.19,88.268 393.066,87.911 C 392.941,87.559 392.879,87.176 392.879,86.762 C 392.879,86.358 392.941,85.98 393.066,85.628 C 393.19,85.282 393.368,84.979 393.601,84.72 C 393.834,84.461 394.119,84.257 394.455,84.107 C 394.797,83.962 395.18,83.889 395.604,83.889 C 395.946,83.889 396.259,83.941 396.544,84.045 C 396.829,84.148 397.077,84.298 397.289,84.495 C 397.501,84.692 397.672,84.93 397.802,85.209 C 397.931,85.489 398.011,85.802 398.042,86.149 L 396.862,86.149 C 396.816,85.776 396.686,85.476 396.474,85.248 C 396.267,85.02 395.977,84.906 395.604,84.906 C 395.33,84.906 395.097,84.958 394.906,85.062 C 394.714,85.17 394.559,85.313 394.44,85.489 C 394.321,85.665 394.233,85.861 394.176,86.079 C 394.124,86.301 394.098,86.529 394.098,86.762 C 394.098,87.005 394.124,87.241 394.176,87.469 C 394.233,87.696 394.321,87.898 394.44,88.074 C 394.559,88.255 394.714,88.398 394.906,88.501 C 395.097,88.61 395.33,88.664 395.604,88.664 C 395.754,88.664 395.897,88.638 396.031,88.587 C 396.171,88.54 396.295,88.473 396.404,88.385 C 396.513,88.297 396.603,88.193 396.676,88.074 C 396.748,87.96 396.795,87.833 396.816,87.694"
         id="path369"
         style="fill:#176fc1;fill-opacity:1;fill-rule:nonzero;stroke:none" />
      <path
         d="M 398.563,89.557 L 398.563,84.014 L 399.781,84.014 L 399.781,86.405 L 402.025,86.405 L 402.025,84.014 L 403.244,84.014 L 403.244,89.557 L 402.025,89.557 L 402.025,87.43 L 399.781,87.43 L 399.781,89.557 L 398.563,89.557"
         id="path371"
         style="fill:#176fc1;fill-opacity:1;fill-rule:nonzero;stroke:none" />
      <path
         d="M 403.928,89.557 L 403.928,84.014 L 408.136,84.014 L 408.136,85.038 L 405.147,85.038 L 405.147,86.397 L 407.833,86.397 L 407.833,87.344 L 405.147,87.344 L 405.147,88.532 L 408.074,88.532 L 408.074,89.557 L 403.928,89.557"
         id="path373"
         style="fill:#176fc1;fill-opacity:1;fill-rule:nonzero;stroke:none" />
      <path
         d="M 350.2,95.057 L 350.2,96.618 L 351.536,96.618 C 351.815,96.618 352.025,96.556 352.165,96.432 C 352.304,96.313 352.374,96.118 352.374,95.849 C 352.374,95.57 352.304,95.368 352.165,95.244 C 352.025,95.119 351.815,95.057 351.536,95.057 L 350.2,95.057 z M 348.981,97.565 L 348.981,92.022 L 350.2,92.022 L 350.2,94.188 L 351.419,94.188 C 351.725,94.188 351.945,94.12 352.079,93.986 C 352.214,93.851 352.302,93.639 352.343,93.349 C 352.374,93.127 352.398,92.894 352.413,92.65 C 352.429,92.407 352.47,92.198 352.537,92.022 L 353.756,92.022 C 353.699,92.099 353.655,92.192 353.624,92.301 C 353.598,92.415 353.578,92.534 353.562,92.658 C 353.552,92.782 353.544,92.904 353.539,93.023 C 353.534,93.142 353.529,93.246 353.523,93.334 C 353.513,93.474 353.492,93.613 353.461,93.753 C 353.435,93.893 353.391,94.02 353.329,94.133 C 353.267,94.252 353.187,94.353 353.089,94.436 C 352.99,94.524 352.866,94.589 352.716,94.63 L 352.716,94.646 C 353.026,94.77 353.249,94.951 353.384,95.189 C 353.523,95.427 353.593,95.71 353.593,96.036 C 353.593,96.248 353.554,96.444 353.477,96.626 C 353.404,96.812 353.296,96.975 353.151,97.115 C 353.011,97.255 352.84,97.363 352.638,97.441 C 352.442,97.524 352.219,97.565 351.971,97.565 L 348.981,97.565"
         id="path375"
         style="fill:#176fc1;fill-opacity:1;fill-rule:evenodd;stroke:none" />
      <path
         d="M 354.276,97.565 L 354.276,92.022 L 355.496,92.022 L 355.496,94.413 L 357.739,94.413 L 357.739,92.022 L 358.958,92.022 L 358.958,97.565 L 357.739,97.565 L 357.739,95.438 L 355.496,95.438 L 355.496,97.565 L 354.276,97.565"
         id="path377"
         style="fill:#176fc1;fill-opacity:1;fill-rule:nonzero;stroke:none" />
      <path
         d="M 359.719,97.565 L 359.719,92.022 L 363.927,92.022 L 363.927,93.046 L 360.938,93.046 L 360.938,94.405 L 363.624,94.405 L 363.624,95.352 L 360.938,95.352 L 360.938,96.54 L 363.865,96.54 L 363.865,97.565 L 359.719,97.565"
         id="path379"
         style="fill:#176fc1;fill-opacity:1;fill-rule:nonzero;stroke:none" />
      <path
         d="M 364.595,92.022 L 365.814,92.022 L 365.814,97.5654 L 364.595,97.5654 L 364.595,92.022 z"
         id="path381"
         style="fill:#176fc1;fill-opacity:1;fill-rule:nonzero;stroke:none" />
      <path
         d="M 366.652,97.565 L 366.652,92.022 L 367.794,92.022 L 367.794,95.733 L 367.809,95.733 L 370.115,92.022 L 371.334,92.022 L 371.334,97.565 L 370.193,97.565 L 370.193,93.846 L 370.177,93.846 L 367.864,97.565 L 366.652,97.565"
         id="path383"
         style="fill:#176fc1;fill-opacity:1;fill-rule:nonzero;stroke:none" />
      <path
         d="M 372.095,92.022 L 373.3141,92.022 L 373.3141,97.5654 L 372.095,97.5654 L 372.095,92.022 z"
         id="path385"
         style="fill:#176fc1;fill-opacity:1;fill-rule:nonzero;stroke:none" />
      <path
         d="M 374.983,93.862 L 373.803,93.862 C 373.798,93.52 373.86,93.225 373.989,92.977 C 374.119,92.728 374.292,92.524 374.51,92.363 C 374.732,92.203 374.986,92.086 375.271,92.014 C 375.56,91.936 375.858,91.897 376.163,91.897 C 376.541,91.897 376.873,91.941 377.157,92.029 C 377.447,92.117 377.688,92.239 377.879,92.394 C 378.076,92.555 378.223,92.744 378.322,92.961 C 378.42,93.178 378.469,93.414 378.469,93.668 C 378.469,93.978 378.402,94.232 378.268,94.429 C 378.138,94.63 377.983,94.791 377.802,94.91 C 377.621,95.029 377.437,95.114 377.25,95.166 C 377.069,95.223 376.927,95.262 376.823,95.283 C 376.477,95.37 376.194,95.443 375.977,95.5 C 375.765,95.557 375.597,95.614 375.472,95.671 C 375.353,95.728 375.273,95.79 375.232,95.857 C 375.19,95.924 375.17,96.012 375.17,96.121 C 375.17,96.24 375.195,96.338 375.247,96.416 C 375.299,96.494 375.364,96.558 375.441,96.61 C 375.524,96.662 375.615,96.698 375.713,96.719 C 375.811,96.74 375.91,96.75 376.008,96.75 C 376.158,96.75 376.295,96.737 376.42,96.711 C 376.549,96.685 376.663,96.641 376.761,96.579 C 376.86,96.517 376.937,96.432 376.994,96.323 C 377.056,96.214 377.093,96.077 377.103,95.911 L 378.283,95.911 C 378.283,96.232 378.221,96.504 378.097,96.727 C 377.978,96.954 377.815,97.141 377.608,97.286 C 377.401,97.431 377.162,97.534 376.893,97.596 C 376.629,97.663 376.352,97.697 376.062,97.697 C 375.814,97.697 375.566,97.663 375.317,97.596 C 375.069,97.529 374.846,97.425 374.649,97.286 C 374.453,97.146 374.292,96.97 374.168,96.758 C 374.049,96.551 373.989,96.305 373.989,96.02 C 373.989,95.767 374.036,95.549 374.129,95.368 C 374.228,95.192 374.354,95.044 374.51,94.925 C 374.665,94.806 374.841,94.708 375.038,94.63 C 375.234,94.558 375.436,94.496 375.643,94.444 C 375.845,94.387 376.044,94.335 376.241,94.289 C 376.438,94.242 376.614,94.188 376.769,94.126 C 376.924,94.063 377.049,93.986 377.142,93.893 C 377.24,93.8 377.289,93.678 377.289,93.528 C 377.289,93.388 377.253,93.272 377.181,93.178 C 377.108,93.09 377.017,93.021 376.909,92.969 C 376.8,92.917 376.684,92.881 376.56,92.86 C 376.435,92.844 376.319,92.837 376.21,92.837 C 376.05,92.837 375.894,92.855 375.744,92.891 C 375.594,92.932 375.462,92.992 375.348,93.07 C 375.24,93.153 375.151,93.259 375.084,93.388 C 375.017,93.518 374.983,93.675 374.983,93.862"
         id="path387"
         style="fill:#176fc1;fill-opacity:1;fill-rule:nonzero;stroke:none" />
      <path
         d="M 382.732,95.702 L 383.912,95.702 C 383.876,96.023 383.788,96.307 383.648,96.556 C 383.508,96.804 383.33,97.011 383.112,97.177 C 382.9,97.348 382.657,97.477 382.383,97.565 C 382.113,97.653 381.826,97.697 381.521,97.697 C 381.096,97.697 380.713,97.622 380.372,97.472 C 380.035,97.322 379.751,97.115 379.518,96.851 C 379.285,96.587 379.106,96.276 378.982,95.919 C 378.858,95.567 378.795,95.184 378.795,94.77 C 378.795,94.366 378.858,93.988 378.982,93.637 C 379.106,93.29 379.285,92.987 379.518,92.728 C 379.751,92.469 380.035,92.265 380.372,92.115 C 380.713,91.97 381.096,91.897 381.521,91.897 C 381.862,91.897 382.175,91.949 382.46,92.053 C 382.745,92.156 382.993,92.306 383.205,92.503 C 383.418,92.7 383.589,92.938 383.718,93.217 C 383.847,93.497 383.928,93.81 383.958,94.157 L 382.778,94.157 C 382.732,93.784 382.602,93.484 382.39,93.256 C 382.183,93.028 381.893,92.914 381.521,92.914 C 381.246,92.914 381.013,92.966 380.822,93.07 C 380.63,93.178 380.475,93.321 380.356,93.497 C 380.237,93.673 380.149,93.869 380.092,94.087 C 380.04,94.309 380.014,94.537 380.014,94.77 C 380.014,95.013 380.04,95.249 380.092,95.477 C 380.149,95.704 380.237,95.906 380.356,96.082 C 380.475,96.263 380.63,96.406 380.822,96.509 C 381.013,96.618 381.246,96.672 381.521,96.672 C 381.671,96.672 381.813,96.646 381.948,96.595 C 382.087,96.548 382.212,96.481 382.32,96.393 C 382.429,96.305 382.52,96.201 382.592,96.082 C 382.665,95.968 382.711,95.841 382.732,95.702"
         id="path389"
         style="fill:#176fc1;fill-opacity:1;fill-rule:nonzero;stroke:none" />
      <path
         d="M 384.479,97.565 L 384.479,92.022 L 385.698,92.022 L 385.698,94.413 L 387.942,94.413 L 387.942,92.022 L 389.161,92.022 L 389.161,97.565 L 387.942,97.565 L 387.942,95.438 L 385.698,95.438 L 385.698,97.565 L 384.479,97.565"
         id="path391"
         style="fill:#176fc1;fill-opacity:1;fill-rule:nonzero;stroke:none" />
      <path
         d="M 390.108,93.668 L 392.4449,93.668 L 392.4449,94.61533 L 390.108,94.61533 L 390.108,93.668 z"
         id="path393"
         style="fill:#176fc1;fill-opacity:1;fill-rule:nonzero;stroke:none" />
      <path
         d="M 312.288,99.751 L 299.81,99.751 L 299.81,136.47 C 299.81,136.519 299.81,136.743 299.81,136.743 L 320.272,136.743 C 325.821,136.743 330.606,133.201 332.167,128.503 C 333.614,124.152 332.377,119.423 329.115,116.058 C 329.549,114.898 329.971,113.992 330.374,112.95 C 331.279,110.891 332.11,108.831 333.015,106.797 L 335.983,99.751 L 323.331,99.751 C 323.331,99.745 323.23,100.048 323.129,100.173 C 322.626,101.264 322.174,102.43 321.67,103.522 L 318.627,110.642 C 317.419,113.52 316.212,116.24 315.005,119.118 C 316.512,119.159 317.638,118.88 319.093,119.539 C 320.115,120.035 321.663,121.268 321.703,123.632 C 321.663,124.804 321.335,125.69 320.55,126.613 C 319.761,127.471 318.621,128.106 317.135,128.127 C 317.135,128.127 312.285,128.13 312.288,128.127 L 312.288,99.751"
         id="path395"
         style="fill:#176fc1;fill-opacity:1;fill-rule:evenodd;stroke:none" />
      <path
         d="M 442.622,136.737 L 442.622,99.745 L 430.143,99.745 L 430.143,114.83 L 421.408,114.83 L 421.408,99.745 C 419.145,99.745 416.705,99.77 414.441,99.745 L 408.93,99.745 L 408.93,128.178 L 400.203,128.178 C 400.203,127.905 400.203,127.632 400.203,127.285 L 400.203,99.745 L 387.725,99.745 L 387.725,128.178 L 378.923,128.178 L 378.923,99.745 L 366.069,99.745 C 363.83,105.079 361.465,110.463 359.277,115.773 C 359.025,116.889 358.774,118.006 358.447,119.097 L 358.447,99.745 L 345.568,99.745 C 343.015,105.601 340.562,111.338 338.015,117.28 C 337.133,119.338 336.412,121.014 335.5,123.154 L 335.374,123.433 L 333.393,128.023 L 330.555,134.579 C 330.303,135.323 329.901,135.993 329.649,136.737 L 342.499,136.737 C 345.14,130.411 347.806,124.159 350.574,117.931 L 350.649,117.782 C 350.548,118.502 350.321,119.42 350.195,120.115 L 350.195,131.155 C 350.22,132.917 350.195,134.926 350.195,136.737 L 363.074,136.737 C 363.237,136.334 363.327,136.117 363.453,135.795 C 364.962,132.296 366.396,128.823 367.905,125.349 L 371.276,117.782 C 371.2,118.576 371.024,119.345 370.923,120.115 L 370.923,136.737 L 421.408,136.737 L 421.408,123.39 C 421.408,123.39 421.811,123.39 422.012,123.39 L 430.143,123.39 L 430.143,136.737 C 430.143,136.737 434.489,136.737 436.652,136.737 L 442.622,136.737"
         id="path397"
         style="fill:#176fc1;fill-opacity:1;fill-rule:nonzero;stroke:none" />
      <path
         d="M 442.622,136.737 L 442.622,99.745 L 430.143,99.745 L 430.143,114.83 L 421.408,114.83 L 421.408,99.745 C 419.145,99.745 416.705,99.77 414.441,99.745 L 408.93,99.745 L 408.93,128.178 L 400.203,128.178 C 400.203,127.905 400.203,127.632 400.203,127.285 L 400.203,99.745 L 387.725,99.745 L 387.725,128.178 L 378.923,128.178 L 378.923,99.745 L 366.069,99.745 C 363.83,105.079 361.465,110.463 359.277,115.773 C 359.025,116.889 358.774,118.006 358.447,119.097 L 358.447,99.745 L 345.568,99.745 C 343.015,105.601 340.562,111.338 338.015,117.28 C 337.133,119.338 336.412,121.014 335.5,123.154 L 335.374,123.433 L 333.393,128.023 L 330.555,134.579 C 330.303,135.323 329.901,135.993 329.649,136.737 L 342.499,136.737 C 345.14,130.411 347.806,124.159 350.574,117.931 L 350.649,117.782 C 350.548,118.502 350.321,119.42 350.195,120.115 L 350.195,131.155 C 350.22,132.917 350.195,134.926 350.195,136.737 L 363.074,136.737 C 363.237,136.334 363.327,136.117 363.453,135.795 C 364.962,132.296 366.396,128.823 367.905,125.349 L 371.276,117.782 C 371.2,118.576 371.024,119.345 370.923,120.115 L 370.923,136.737 L 421.408,136.737 L 421.408,123.39 C 421.408,123.39 421.811,123.39 422.012,123.39 L 430.143,123.39 L 430.143,136.737 C 430.143,136.737 434.489,136.737 436.652,136.737 L 442.622,136.737"
         id="path399"
         style="fill:#176fc1;fill-opacity:1;fill-rule:nonzero;stroke:none" />
    </g>
  </g>
</svg>
