<?xml version="1.0" encoding="UTF-8" standalone="no"?>
<!DOCTYPE svg PUBLIC "-//W3C//DTD SVG 1.0//EN" "http://www.w3.org/TR/2001/REC-SVG-20010904/DTD/svg10.dtd">
<!-- Created with Inkscape (http://www.inkscape.org/) -->
<svg
   xmlns:svg="http://www.w3.org/2000/svg"
   xmlns="http://www.w3.org/2000/svg"
   version="1.0"
   width="800"
   height="180"
   id="svg2">
  <defs
     id="defs4" />
  <g
     transform="translate(2427.6833,6.5277433)"
     id="layer1">
    <path
       d="M -2341.6796,163.59698 L -2344.3753,160.89862 L -2338.9111,155.43988 L -2336.2155,158.13556 L -2333.5199,160.83124 L -2338.9839,166.29534 L -2341.6796,163.59698 z M -2361.7456,160.05813 L -2356.3495,154.6676 L -2350.9592,160.06343 L -2356.3549,165.45397 L -2361.7456,160.05813 z M -2327.2135,159.98984 L -2321.822,154.59848 L -2316.358,160.06258 L -2321.7547,165.45398 L -2327.2135,159.98984 z M -2378.5552,158.79738 L -2373.0912,153.33866 L -2367.6998,158.73004 L -2373.164,164.19413 L -2378.5552,158.79738 z M -2310.0552,158.79739 L -2304.591,153.33866 L -2299.1997,158.73004 L -2304.6638,164.19411 L -2310.0552,158.79739 z M -2352.8484,148.08287 L -2347.457,142.69152 L -2341.9929,148.1556 L -2347.3898,153.547 L -2352.8484,148.08287 z M -2336.3187,148.08284 L -2330.9275,142.69152 L -2325.5359,148.08284 L -2330.9275,153.4069 L -2336.3187,148.08284 z M -2369.4498,147.0305 L -2363.9859,141.57176 L -2358.5945,146.96313 L -2364.0586,152.42721 L -2369.4498,147.0305 z M -2319.5808,147.03048 L -2314.1166,141.57175 L -2308.7252,146.96312 L -2314.1894,152.42721 L -2319.5808,147.03048 z M -2386.2598,145.20942 L -2380.7957,139.75069 L -2375.4044,145.14205 L -2380.8684,150.60616 L -2386.2598,145.20942 z M -2302.7709,145.20942 L -2297.3068,139.75068 L -2291.9154,145.14205 L -2297.3794,150.60614 L -2302.7709,145.20942 z M -2402.2965,141.92011 L -2396.8387,136.45692 L -2391.4428,141.84744 L -2396.9061,147.24329 L -2402.2965,141.92011 z M -2286.0293,141.91922 L -2280.566,136.45604 L -2275.1074,141.92011 L -2280.5678,147.24328 L -2286.0293,141.91922 z M -2344.3753,136.52433 L -2338.9111,131.0656 L -2333.5199,136.45695 L -2338.9839,141.92107 L -2344.3753,136.52433 z M -2360.6921,135.89657 L -2355.2342,130.43339 L -2349.8385,135.82391 L -2355.3018,141.21974 L -2360.6921,135.89657 z M -2328.3331,135.89658 L -2322.8754,130.43339 L -2317.4952,135.80813 L -2322.8637,141.18752 L -2328.3331,135.89658 z M -2376.8043,134.19323 L -2371.2816,128.89252 L -2365.8797,134.21657 L -2371.3428,139.67975 L -2376.8043,134.19323 z M -2312.2245,134.21471 L -2306.8331,128.82339 L -2301.4419,134.21471 L -2306.8331,139.53876 L -2312.2245,134.21471 z M -2392.7036,131.48132 L -2387.3803,126.02356 L -2381.9172,131.48139 L -2387.3805,136.8772 L -2392.7036,131.48132 z M -2296.187,131.48138 L -2290.7912,126.09084 L -2285.4006,131.4867 L -2290.7966,136.87723 L -2296.187,131.48138 z M -2352.5001,125.45784 L -2347.1043,120.06731 L -2341.6463,125.53051 L -2347.0368,130.85367 L -2352.5001,125.45784 z M -2336.6708,125.45785 L -2331.2749,120.06731 L -2325.8844,125.46316 L -2331.2803,130.85369 L -2336.6708,125.45785 z M -2406.2188,125.25034 L -2400.761,119.78714 L -2395.3651,125.17768 L -2400.8284,130.57351 L -2406.2188,125.25034 z M -2282.8064,125.25036 L -2277.3486,119.78714 L -2271.9527,125.17768 L -2277.416,130.57351 L -2282.8064,125.25036 z M -2367.6289,124.33719 L -2362.1647,118.87845 L -2356.7733,124.26983 L -2362.2375,129.73392 L -2367.6289,124.33719 z M -2321.4017,124.33719 L -2315.9377,118.87846 L -2310.5464,124.26982 L -2316.0105,129.73392 L -2321.4017,124.33719 z M -2383.3181,122.37605 L -2377.8549,116.91822 L -2372.5318,122.37871 L -2377.8574,127.77187 L -2383.3181,122.37605 z M -2305.7126,122.37604 L -2300.2495,116.91823 L -2294.9262,122.37871 L -2300.2521,127.77186 L -2305.7126,122.37604 z M -2419.8077,117.54497 L -2414.3444,112.08176 L -2408.8848,117.54679 L -2414.3482,123.00998 L -2419.8077,117.54497 z M -2269.2185,117.54583 L -2263.7605,112.08263 L -2258.3648,117.47316 L -2263.8281,122.86899 L -2269.2185,117.54583 z M -2395.2933,115.72386 L -2392.5615,112.99228 L -2389.8301,110.26071 L -2384.3715,115.72477 L -2387.0303,118.38635 L -2389.8319,121.04792 L -2395.2933,115.72386 z M -2293.7337,115.72388 L -2288.3423,110.33255 L -2282.9512,115.72388 L -2288.3423,121.04793 L -2293.7337,115.72388 z M -2344.3753,115.51202 L -2338.9795,110.12148 L -2333.5215,115.58469 L -2338.912,120.90785 L -2344.3753,115.51202 z M -2359.2241,114.95168 L -2353.8282,109.56115 L -2348.3704,115.02435 L -2353.7607,120.34752 L -2359.2241,114.95168 z M -2329.8068,114.95168 L -2324.4109,109.56116 L -2318.9532,115.02436 L -2324.3435,120.34751 L -2329.8068,114.95168 z M -2374.5611,113.20244 L -2369.1697,107.81107 L -2363.7057,113.27515 L -2369.1024,118.66656 L -2374.5611,113.20244 z M -2314.466,113.20244 L -2309.0745,107.81106 L -2303.6103,113.27515 L -2309.0071,118.66656 L -2314.466,113.20244 z M -1732.9509,116.35912 C -1735.1061,116.05149 -1736.5168,115.63956 -1738.078,114.86202 C -1740.9528,113.43033 -1742.4049,111.26879 -1742.792,107.84518 L -1742.883,107.03971 L -1738.6768,107.03971 L -1734.4706,107.03971 L -1734.3753,107.56503 C -1734.0488,109.36381 -1732.5083,110.47417 -1730.1035,110.64377 C -1727.3185,110.8402 -1725.2118,109.82293 -1724.1887,107.78778 C -1723.5371,106.49154 -1723.3471,105.35734 -1723.3524,102.79595 C -1723.3551,101.502 -1723.4016,100.39897 -1723.4557,100.34478 C -1723.5099,100.29059 -1723.6857,100.43525 -1723.8462,100.66624 C -1724.8829,102.15775 -1726.8095,103.40815 -1728.9375,103.97077 C -1731.2117,104.572 -1734.3928,104.30528 -1736.5103,103.33586 C -1739.3625,102.03004 -1741.6593,99.344589 -1742.9273,95.833156 C -1744.264,92.130662 -1744.3219,87.519211 -1743.0791,83.725426 C -1741.3344,78.399212 -1737.692,75.113777 -1732.8834,74.52912 C -1729.6225,74.132627 -1726.5307,74.989822 -1724.9386,76.731736 C -1724.5426,77.164956 -1724.0964,77.758944 -1723.9471,78.051727 C -1723.4653,78.996257 -1723.3914,78.865814 -1723.3914,77.070419 L -1723.3914,75.381169 L -1718.9788,75.381169 L -1714.5662,75.381169 L -1714.5676,89.354344 C -1714.5685,97.817193 -1714.6263,103.9795 -1714.7141,104.98077 C -1715.1972,110.48672 -1717.4417,113.87032 -1721.6627,115.45579 C -1723.7312,116.23272 -1725.1081,116.44312 -1728.5044,116.50121 C -1730.6491,116.53791 -1732.0011,116.49469 -1732.9509,116.35912 z M -1726.8156,97.903609 C -1724.2921,96.597302 -1723.1158,92.993982 -1723.5318,87.843797 C -1723.9104,83.156819 -1725.3623,80.885475 -1728.2797,80.415626 C -1729.9781,80.142109 -1731.8899,80.749103 -1732.8558,81.868505 C -1734.31,83.553871 -1735.0126,86.655596 -1734.8292,90.580082 C -1734.6627,94.138996 -1733.7005,96.55891 -1732.0335,97.611302 C -1731.0271,98.246615 -1730.5658,98.352699 -1728.9947,98.310095 C -1727.7286,98.275772 -1727.4252,98.219187 -1726.8156,97.903609 z M -2408.0399,108.4405 L -2405.3109,105.70889 L -2402.582,102.97731 L -2397.1861,108.36783 L -2399.8815,111.06575 L -2402.6494,113.76365 L -2408.0399,108.4405 z M -2280.9855,108.4405 L -2275.5276,102.97731 L -2270.1318,108.36783 L -2275.595,113.76365 L -2280.9855,108.4405 z M -2385.3474,106.61855 L -2382.6159,103.88696 L -2379.8842,101.15537 L -2374.4255,106.61944 L -2377.0846,109.28102 L -2379.8861,111.94259 L -2385.3474,106.61855 z M -2303.6787,106.61944 L -2298.2209,101.15624 L -2292.825,106.54677 L -2298.2884,111.94259 L -2303.6787,106.61944 z M -2351.6595,106.12646 L -2346.3364,100.66875 L -2341.0132,106.12919 L -2346.3392,111.52234 L -2351.6595,106.12646 z M -2337.4386,106.19919 L -2331.9806,100.73599 L -2326.5849,106.12652 L -2332.0481,111.52234 L -2337.4386,106.19919 z M -2366.088,105.14588 L -2360.7648,99.68814 L -2355.3017,105.14595 L -2360.765,110.54177 L -2366.088,105.14588 z M -2322.8027,105.14595 L -2317.4066,99.755415 L -2312.0161,105.15127 L -2317.412,110.5418 L -2322.8027,105.14595 z M -2421.0684,100.73513 L -2418.3727,98.039443 L -2415.677,95.343767 L -2410.2128,100.80786 L -2412.9113,103.50356 L -2415.6097,106.19926 L -2421.0684,100.73513 z M -2267.9578,100.73606 L -2262.5312,95.41291 L -2257.0341,100.72173 L -2262.499,106.20012 L -2267.9578,100.73606 z M -2209.9664,100.44201 C -2212.1796,98.066568 -2213.582,94.816023 -2213.9529,91.203284 L -2214.099,62.353533 L -2205.0209,62.353533 L -2204.9525,76.046558 C -2204.8827,90.089646 -2204.8545,90.820014 -2204.2958,93.068361 C -2203.5678,95.998514 -2201.9253,97.850506 -2199.3203,98.67863 C -2197.4151,99.284256 -2194.4452,99.329341 -2192.3408,98.78457 C -2188.8376,97.877751 -2187.0424,95.356733 -2186.512,90.599197 C -2186.4167,89.744207 -2186.3627,84.398257 -2186.3627,75.806935 L -2186.3627,62.353536 L -2177.1019,62.35353 L -2177.1572,76.887052 C -2177.2182,92.892158 -2177.1865,92.291297 -2178.1118,95.059911 C -2180.3965,101.89724 -2186.9549,105.85169 -2195.8587,105.7608 C -2201.1584,105.87576 -2206.0469,103.97716 -2209.9664,100.44201 z M -2074.0867,105.5745 C -2077.1067,105.10934 -2079.5305,103.95642 -2081.3011,102.14295 C -2082.5717,100.84159 -2083.3623,99.493252 -2084.0154,97.514139 C -2084.7794,95.198188 -2084.9936,93.663135 -2085.0026,90.439995 C -2085.0123,87.025845 -2084.6944,85.217225 -2083.6496,82.743069 C -2081.8556,78.494339 -2078.4999,75.694413 -2074.0581,74.740298 C -2072.3555,74.37457 -2068.892,74.407228 -2067.0161,74.806697 C -2062.9458,75.673462 -2060.2383,77.693855 -2058.4424,81.20483 C -2057.1654,83.701176 -2056.7398,85.720242 -2056.5584,90.143894 L -2056.4632,92.471185 L -2066.2386,92.471185 L -2076.0141,92.471185 L -2075.9147,93.766944 C -2075.6542,97.162294 -2074.9017,98.672544 -2073.0433,99.529561 C -2072.1598,99.937136 -2069.5559,99.952536 -2068.4149,99.55695 C -2067.3862,99.200305 -2066.2123,98.032203 -2065.7638,96.918789 L -2065.4392,96.11332 L -2061.4509,96.11332 L -2057.4626,96.11332 L -2057.5624,96.708664 C -2058.2535,100.82816 -2060.6608,103.62367 -2064.6354,104.92209 C -2066.2987,105.46552 -2067.5748,105.64448 -2070.2347,105.7074 C -2072.0287,105.74984 -2073.2141,105.70893 -2074.0867,105.5745 z M -2069.8881,80.413133 C -2071.7162,80.15334 -2073.3385,80.595632 -2074.3808,81.637963 C -2075.2275,82.484588 -2075.562,83.442629 -2075.9019,85.992384 L -2075.9814,86.587733 L -2070.828,86.587733 L -2065.6744,86.587733 C -2065.8153,83.316716 -2066.4615,81.314447 -2069.8881,80.413133 z M -2020.0567,105.62351 C -2024.6336,105.00963 -2027.865,103.073 -2029.2877,100.09121 C -2029.7675,99.085525 -2030.2775,96.872822 -2030.1226,96.468962 C -2030.0509,96.281892 -2029.511,96.253399 -2026.0388,96.253399 C -2022.958,96.253399 -2022.026,96.293679 -2021.9874,96.428498 C -2021.5157,98.07359 -2020.7791,98.956305 -2019.4331,99.489296 C -2018.7572,99.756889 -2018.3454,99.814515 -2017.0735,99.81948 C -2015.6354,99.825093 -2015.4766,99.79745 -2014.6921,99.405242 C -2013.6002,98.859294 -2013.0609,98.114751 -2012.9708,97.02947 C -2012.8913,96.071262 -2013.0896,95.564345 -2013.7929,94.929041 C -2014.8018,94.017488 -2015.9246,93.582701 -2019.8052,92.600909 C -2024.2729,91.470477 -2026.1144,90.663207 -2027.5973,89.184821 C -2029.1837,87.603458 -2029.8236,85.780919 -2029.7145,83.155725 C -2029.6372,81.299958 -2029.3307,80.386056 -2028.3605,79.118232 C -2026.759,77.025728 -2023.8053,75.425954 -2020.2547,74.728009 C -2018.621,74.406864 -2015.2959,74.405437 -2013.5376,74.725122 C -2008.5625,75.629666 -2005.8274,78.183971 -2005.2461,82.469137 L -2005.1434,83.225763 L -2009.1069,83.225763 L -2013.0703,83.225763 L -2013.2217,82.663596 C -2013.4071,81.975532 -2014.067,81.19902 -2014.7722,80.839185 C -2015.5622,80.436156 -2017.0375,80.249267 -2018.1643,80.409431 C -2019.7889,80.640308 -2020.5067,81.272458 -2020.614,82.566672 C -2020.7632,84.366523 -2019.8698,84.957977 -2014.87,86.36895 C -2010.3947,87.631894 -2008.8096,88.265411 -2007.111,89.469838 C -2005.9733,90.276692 -2005.1035,91.26646 -2004.5781,92.352335 C -2003.9877,93.572762 -2003.7848,94.548717 -2003.7966,96.11332 C -2003.8125,98.254966 -2004.4244,99.727137 -2005.9973,101.40858 C -2007.7742,103.30811 -2010.5294,104.73531 -2013.7816,105.4407 C -2015.045,105.71477 -2018.6034,105.81842 -2020.0567,105.62351 z M -1974.2678,105.57544 C -1976.4663,105.15645 -1978.0918,103.98505 -1978.9077,102.23205 C -1979.9037,100.092 -1980.0215,98.692597 -1980.0217,89.004148 L -1980.0219,81.264615 L -1985.9053,81.264615 L -1985.9053,75.381168 L -1980.0273,75.381168 L -1979.9517,69.464227 L -1971.2667,66.3381 L -1971.1266,75.311127 L -1964.4727,75.386239 L -1964.4727,81.264615 L -1971.2186,81.264615 L -1971.1631,89.284313 C -1971.101,98.247287 -1971.0908,98.346723 -1970.1597,99.164326 C -1969.4494,99.787953 -1968.5372,99.952336 -1966.41,99.840036 L -1964.6127,99.745157 L -1964.6127,102.33642 L -1964.6127,104.92769 L -1965.1381,105.06787 C -1967.1851,105.6141 -1972.5112,105.91023 -1974.2678,105.57544 z M -1953.3361,105.57114 C -1956.8204,104.92247 -1959.2095,102.93327 -1960.2235,99.836473 C -1960.5378,98.87676 -1960.5953,98.449451 -1960.6019,97.023848 C -1960.6108,95.091159 -1960.4036,94.169796 -1959.5622,92.401138 C -1957.5227,88.114121 -1953.3403,86.155276 -1945.7017,85.909636 L -1942.83,85.817285 L -1942.8383,84.066255 C -1942.8457,82.540351 -1942.8877,82.230507 -1943.1659,81.656229 C -1943.8892,80.163447 -1945.4132,79.337061 -1947.1815,79.479 C -1949.0962,79.632698 -1950.469,81.009755 -1950.812,83.120701 L -1950.8974,83.646012 L -1955.1136,83.646012 L -1959.3298,83.646012 L -1959.2371,82.647132 C -1959.1214,81.402571 -1958.5886,79.787841 -1957.9798,78.837296 C -1956.6639,76.782165 -1953.9825,75.304557 -1950.5668,74.7521 C -1946.7691,74.13785 -1942.8925,74.440872 -1940.0955,75.570623 C -1936.5665,76.996027 -1934.529,79.790985 -1934.0848,83.815592 C -1933.9946,84.634113 -1933.9343,88.623137 -1933.9337,93.831459 C -1933.9328,101.61073 -1933.877,103.31547 -1933.5807,104.6233 L -1933.5092,104.93849 L -1937.4867,104.93849 L -1941.4642,104.93849 L -1941.5562,104.48322 C -1941.6067,104.23283 -1941.6872,103.35031 -1941.7351,102.52207 C -1941.783,101.69384 -1941.8755,101.01619 -1941.9408,101.01619 C -1942.0062,101.01619 -1942.0595,101.07164 -1942.0595,101.13942 C -1942.0595,101.39997 -1943.3637,102.93815 -1944.1291,103.58025 C -1946.3069,105.40735 -1949.966,106.19857 -1953.3361,105.57114 z M -1945.7909,99.420778 C -1944.5365,98.80705 -1943.7379,97.692498 -1943.2627,95.892511 C -1942.9543,94.723823 -1942.6776,91.236823 -1942.8774,91.03697 C -1943.0831,90.831289 -1947.1449,91.127464 -1948.2931,91.43187 C -1950.8091,92.098829 -1951.9925,93.332318 -1952.1123,95.412903 C -1952.2292,97.441963 -1951.2156,99.001767 -1949.3438,99.672916 C -1948.3791,100.0188 -1946.7815,99.905432 -1945.7909,99.420778 z M -1918.4557,105.58242 C -1920.9261,105.10036 -1922.2781,104.14378 -1923.2266,102.20689 C -1924.1657,100.28923 -1924.1688,100.25162 -1924.2295,90.267651 L -1924.2842,81.270143 L -1930.2226,81.194574 L -1930.2983,75.386754 L -1924.3391,75.311127 L -1924.1991,69.443536 L -1915.514,66.313882 L -1915.4401,75.381168 L -1908.8601,75.381168 L -1908.8601,81.264615 L -1915.4439,81.264615 L -1915.4416,88.93411 C -1915.4389,97.102896 -1915.375,98.028176 -1914.7528,98.902106 C -1914.1928,99.688507 -1913.6547,99.826785 -1911.2064,99.813722 L -1909.0001,99.801935 L -1909.0001,102.36481 L -1909.0001,104.92769 L -1909.5462,105.07474 C -1911.5437,105.6126 -1916.7737,105.91062 -1918.4557,105.58242 z M -1876.0108,105.6249 C -1881.4768,105.05514 -1885.452,102.80284 -1887.343,99.20411 C -1888.3333,97.319693 -1888.9658,94.657565 -1888.9676,92.366118 L -1888.9684,91.350523 L -1884.3107,91.351949 L -1879.6531,91.353381 L -1879.6195,92.50763 C -1879.4922,96.895557 -1876.4256,99.434063 -1871.5996,99.146299 C -1867.9708,98.929895 -1865.4812,97.727277 -1864.492,95.712889 C -1864.1501,95.016666 -1864.1041,94.764248 -1864.1053,93.59184 C -1864.1073,91.915339 -1864.4408,91.079959 -1865.4814,90.144423 C -1866.7065,89.0429 -1868.1861,88.464735 -1871.8784,87.644875 C -1878.7544,86.118055 -1882.6481,84.420556 -1885.1878,81.842378 C -1887.3171,79.680763 -1888.1511,77.040211 -1887.7221,73.81831 C -1887.4108,71.480261 -1886.6489,69.512073 -1885.4255,67.885843 C -1882.8318,64.437984 -1878.5343,62.279078 -1873.001,61.644305 C -1871.1921,61.436779 -1867.4404,61.553598 -1866.0649,61.86029 C -1860.2481,63.157367 -1856.6181,66.700573 -1855.6975,71.979819 C -1855.5827,72.638024 -1855.4889,73.484381 -1855.4889,73.860609 L -1855.4889,74.544665 L -1859.8515,74.507651 L -1864.2142,74.470635 L -1864.4558,73.277591 C -1865.1651,69.77295 -1867.3872,68.092253 -1871.3021,68.098971 C -1873.5676,68.102856 -1875.3553,68.754544 -1876.6534,70.049688 C -1877.6847,71.078618 -1878.042,71.999819 -1878.042,73.630145 C -1878.042,75.158889 -1877.6937,76.127705 -1876.8351,76.986199 C -1875.7726,78.048712 -1874.6314,78.496484 -1870.0573,79.645736 C -1864.5826,81.021265 -1863.0171,81.50894 -1860.9164,82.493393 C -1857.3148,84.181162 -1855.3483,86.274287 -1854.5815,89.236216 C -1854.2803,90.399097 -1854.2822,92.982386 -1854.5853,94.572413 C -1855.6347,100.07886 -1859.8527,103.80055 -1866.6253,105.19581 C -1869.3289,105.75277 -1873.1209,105.92613 -1876.0108,105.6249 z M -1839.8697,105.57924 C -1841.708,105.21457 -1842.7502,104.67233 -1843.7589,103.55583 C -1844.3958,102.85082 -1844.7326,102.1976 -1845.1055,100.94446 C -1845.6143,99.234139 -1845.6831,97.864041 -1845.6831,89.430856 L -1845.6831,81.270189 L -1851.6365,81.194579 L -1851.7122,75.381169 L -1845.6886,75.381164 L -1845.613,69.455536 L -1836.9279,66.324464 L -1836.8541,75.381168 L -1830.1283,75.381164 L -1830.204,81.194574 L -1836.8578,81.269689 L -1836.8568,88.79656 C -1836.8561,93.303825 -1836.7978,96.681459 -1836.711,97.215868 C -1836.5081,98.465717 -1836.1366,99.125662 -1835.4202,99.50842 C -1834.8725,99.801055 -1834.6567,99.824581 -1832.6204,99.813715 L -1830.4141,99.801935 L -1830.4141,102.36481 L -1830.4141,104.92769 L -1830.9602,105.07474 C -1832.9674,105.61519 -1838.1959,105.91127 -1839.8697,105.57924 z M -1816.3964,105.63606 C -1818.927,105.10073 -1821.3644,103.79262 -1822.8786,102.15705 C -1824.0671,100.87323 -1824.5996,99.586988 -1824.9455,97.163934 C -1825.0285,96.582718 -1825.0867,91.94726 -1825.0883,85.782258 L -1825.091,75.381169 L -1816.2781,75.381169 L -1816.2299,85.291973 C -1816.1888,93.735913 -1816.1496,95.306554 -1815.9653,95.903914 C -1815.3625,97.857482 -1814.6476,98.796222 -1813.2908,99.415885 C -1812.5369,99.760124 -1812.2362,99.817094 -1811.1528,99.820971 C -1810.083,99.824814 -1809.7755,99.770639 -1809.1215,99.463181 C -1807.6645,98.777979 -1806.5345,97.262275 -1805.9455,95.202786 C -1805.7317,94.454711 -1805.6996,93.31864 -1805.6536,84.871728 L -1805.6019,75.38117 L -1801.2056,75.381163 L -1796.8092,75.381169 C -1796.7323,84.988226 -1796.7893,94.597692 -1796.5812,104.20306 L -1796.4872,104.9385 L -1800.9133,104.9385 C -1805.0318,104.93849 -1805.3401,104.92145 -1805.3486,104.69334 C -1805.3537,104.55851 -1805.4324,103.7305 -1805.5237,102.85332 L -1805.6896,101.25842 L -1806.355,102.10594 C -1807.5155,103.58432 -1809.3816,104.79258 -1811.3869,105.36401 C -1812.5568,105.69738 -1815.3812,105.85077 -1816.3964,105.63606 z M -1780.615,105.64831 C -1784.2095,105.05477 -1786.0252,103.10693 -1786.5586,99.272098 C -1786.6515,98.603819 -1786.7085,94.977827 -1786.7085,89.729446 L -1786.7085,81.264613 L -1792.732,81.264613 L -1792.732,75.386743 L -1786.7786,75.311125 L -1786.6385,69.429774 C -1783.8123,68.398015 -1780.7544,67.364031 -1777.8967,66.425153 L -1777.8834,75.381173 L -1771.2995,75.381169 L -1771.2995,81.264619 L -1777.8834,81.264611 L -1777.8834,89.102312 C -1777.8834,97.285499 -1777.8414,97.955012 -1777.2756,98.804774 C -1776.6981,99.672139 -1776.1408,99.827033 -1773.6459,99.813715 L -1771.4396,99.801935 L -1771.4396,102.36481 L -1771.4396,104.92769 L -1771.9648,105.0659 C -1773.7978,105.54816 -1779.0713,105.90322 -1780.615,105.64831 z M -1758.0963,105.56966 C -1760.2221,105.18423 -1761.928,104.00874 -1762.7254,102.3798 C -1763.7622,100.2621 -1763.8726,99.003497 -1763.874,89.284313 L -1763.8751,81.264613 L -1766.8168,81.264617 L -1769.7586,81.264612 L -1769.7586,75.381163 L -1766.8197,75.381167 L -1763.8807,75.381169 L -1763.805,69.459387 L -1755.1201,66.329489 L -1755.0499,70.820306 L -1754.9799,75.311132 L -1748.3204,75.386252 L -1748.3961,81.194579 L -1755.0665,81.269722 L -1755.017,89.286868 C -1754.9623,98.092112 -1754.943,98.299204 -1754.1078,99.078605 C -1753.347,99.788217 -1753.1707,99.826504 -1750.7424,99.810271 L -1748.466,99.795063 L -1748.466,102.35734 C -1748.466,104.6776 -1748.4893,104.9262 -1748.7112,104.98944 C -1749.986,105.35258 -1753.8713,105.78057 -1755.7503,105.76484 C -1756.4823,105.75871 -1757.5379,105.67087 -1758.0963,105.56966 z M -1701.5386,105.50715 C -1705.2495,104.72136 -1707.6795,102.3154 -1708.353,98.759546 C -1708.9669,95.519131 -1707.8958,92.090132 -1705.5356,89.739586 C -1702.9822,87.196675 -1699.5601,86.102784 -1693.5539,85.909627 L -1690.6823,85.817285 L -1690.6943,84.136295 C -1690.7084,82.152709 -1690.9873,81.310899 -1691.905,80.481725 C -1692.7376,79.729636 -1693.3077,79.532083 -1694.6746,79.522198 C -1695.7363,79.514522 -1695.945,79.55772 -1696.6012,79.921413 C -1697.6916,80.525508 -1698.459,81.683744 -1698.6785,83.056607 L -1698.7727,83.646002 L -1702.9573,83.646012 L -1707.1418,83.646012 L -1707.1418,83.094842 C -1707.1418,82.791701 -1707.0464,82.082531 -1706.9297,81.518918 C -1706.1838,77.916194 -1703.2511,75.572006 -1698.4513,74.741891 C -1696.7651,74.450279 -1692.7893,74.406972 -1691.2425,74.663372 C -1688.5508,75.109595 -1686.4668,76.052381 -1684.912,77.52739 C -1683.3784,78.982281 -1682.6478,80.294475 -1682.1292,82.525576 C -1681.9153,83.446292 -1681.8717,84.821128 -1681.777,93.661886 C -1681.7175,99.209131 -1681.6257,104.01571 -1681.5732,104.34315 L -1681.4775,104.93848 L -1685.3981,104.93848 L -1689.3188,104.93848 L -1689.4049,104.6233 C -1689.4522,104.44995 -1689.5322,103.56743 -1689.5828,102.66215 C -1689.6333,101.75687 -1689.7122,101.01629 -1689.7582,101.01644 C -1689.8041,101.01658 -1690.0169,101.29395 -1690.231,101.63281 C -1690.8869,102.67096 -1692.5267,104.11269 -1693.7248,104.70457 C -1695.8055,105.73241 -1698.9496,106.05535 -1701.5386,105.50715 z M -1693.6491,99.423702 C -1691.7766,98.507535 -1690.936,96.590998 -1690.7916,92.907364 L -1690.7124,90.892111 L -1692.5883,90.993127 C -1695.8191,91.167087 -1697.5168,91.628207 -1698.6728,92.645619 C -1699.6095,93.470187 -1699.9946,94.360574 -1699.9963,95.705729 C -1699.9995,98.279407 -1698.1573,99.977256 -1695.4956,99.85338 C -1694.6873,99.815757 -1694.2357,99.710673 -1693.6491,99.423702 z M -1643.2538,105.57544 C -1646.0387,105.04468 -1647.6795,103.50593 -1648.4432,100.70932 C -1648.9018,99.029371 -1649.0053,96.854203 -1649.0066,88.864069 L -1649.0079,81.264619 L -1654.8912,81.264619 L -1654.8912,75.381169 L -1649.0134,75.381158 L -1648.9377,69.467795 L -1640.1865,66.31885 L -1640.1126,75.311128 L -1633.4587,75.38623 L -1633.4587,78.32543 L -1633.4587,81.264611 L -1640.1827,81.264611 L -1640.1778,88.163652 C -1640.1753,91.958134 -1640.1151,95.706425 -1640.0442,96.493218 C -1639.7801,99.421868 -1638.9639,100.01759 -1635.4565,99.841576 L -1633.5987,99.748335 L -1633.5987,102.33801 L -1633.5987,104.92769 L -1634.1241,105.06787 C -1636.171,105.6141 -1641.4972,105.91023 -1643.2538,105.57544 z M -2396.9061,99.682742 L -2394.1741,96.953377 L -2391.4419,94.224011 L -2386.0505,99.615386 L -2388.7827,102.34743 L -2391.5147,105.07947 L -2396.9061,99.682742 z M -2292.1247,99.682749 L -2286.6614,94.22494 L -2281.3706,99.685416 L -2286.7457,105.06692 L -2292.1247,99.682749 z M -2168.7589,104.84511 L -2168.8525,75.381173 L -2160.0357,75.381167 L -2159.9572,78.931269 C -2158.127,76.314211 -2155.4914,75.091983 -2152.4243,74.530154 C -2147.5002,74.205966 -2141.7775,76.547321 -2140.3737,81.501656 L -2140.5433,104.93849 L -2144.956,104.93849 L -2149.3688,104.93849 C -2149.6876,98.062006 -2148.9438,91.090126 -2149.6904,84.242186 C -2150.4909,81.630718 -2151.9711,80.422214 -2154.424,80.377229 C -2157.2803,80.303415 -2158.8846,82.500725 -2159.7013,84.976786 L -2160.0448,104.93848 C -2162.9334,104.77838 -2165.8794,105.18399 -2168.7589,104.84511 z M -2132.8961,104.84706 L -2132.9199,75.381167 L -2124.0248,75.381168 L -2124.0962,104.86844 C -2127.0139,104.72859 -2129.9864,105.17107 -2132.8961,104.84706 z M -2119.5311,75.381168 L -2110.1703,75.381168 L -2103.5015,95.386979 L -2096.7767,75.626311 L -2088.3423,75.556269 L -2098.9779,104.93849 L -2108.624,104.93849 L -2119.5311,75.381168 z M -2051.6258,75.381168 L -2043.3969,75.381168 C -2043.3969,75.381168 -2043.3698,80.475047 -2043.3698,80.475047 C -2043.3097,80.512147 -2043.0451,80.121888 -2042.782,79.6078 C -2042.0867,78.250009 -2040.4915,76.688942 -2039.1343,76.038145 C -2037.7733,75.385593 -2036.6217,75.113934 -2034.7589,75.006112 L -2033.2529,74.91895 L -2033.2529,82.805517 L -2035.3287,82.805517 C -2037.5433,82.805517 -2038.3165,82.948233 -2039.5866,83.591331 C -2040.9891,84.301534 -2041.5312,85.011921 -2042.1027,86.888592 C -2042.4102,87.898358 -2042.4174,88.085059 -2042.4644,96.428498 L -2042.5125,104.93849 L -2051.299,104.93849 L -2051.6258,75.381168 z M -1998.5592,104.8451 L -1998.6527,75.381169 L -1989.8274,75.381168 L -1989.8274,104.93849 L -1998.5592,104.8451 z M -1674.6693,75.277057 L -1666.7983,75.381169 L -1666.7544,80.728328 C -1666.2138,79.55136 -1665.5234,78.491067 -1664.63,77.552104 C -1662.9935,75.919918 -1661.1015,75.177476 -1658.1481,75.008324 L -1656.5722,74.918066 L -1656.5722,82.777793 L -1658.9887,82.835797 C -1661.7368,82.779111 -1664.5223,83.785559 -1666.0126,86.208011 L -1665.9774,104.9385 L -1674.6372,104.9385 L -1674.6693,75.277057 z M -2375.9619,98.21362 L -2370.5705,92.822294 L -2365.1793,98.21362 L -2370.5705,103.53767 L -2375.9619,98.21362 z M -2312.9968,98.141844 L -2307.6011,92.751317 L -2302.1432,98.214517 L -2307.5336,103.53767 L -2312.9968,98.141844 z M -2344.3753,97.861686 L -2338.9111,92.40294 L -2333.5199,97.794304 L -2338.9839,103.25841 L -2344.3753,97.861686 z M -2358.5235,97.441441 L -2353.1276,92.050892 L -2347.6699,97.514092 L -2353.0602,102.83725 L -2358.5235,97.441441 z M -2330.5071,97.441434 L -2325.1114,92.050909 L -2319.6535,97.514107 L -2325.0439,102.83725 L -2330.5071,97.441434 z M -2409.0932,91.838148 L -2406.3954,89.142888 L -2403.6973,86.447615 L -2398.3068,91.843473 L -2401.0048,94.53874 L -2403.7027,97.234005 L -2409.0932,91.838148 z M -2279.7974,91.802071 L -2274.4733,86.379434 L -2269.0102,91.842601 L -2274.4043,97.218823 L -2279.7974,91.802071 z M -2386.54,91.417896 L -2381.1441,86.027378 L -2375.6863,91.490578 L -2381.0768,96.813728 L -2386.54,91.417896 z M -2302.4907,91.417912 L -2297.0948,86.027371 L -2291.6372,91.49057 L -2297.0275,96.813728 L -2302.4907,91.417912 z M -2367.2087,90.717494 L -2361.7456,85.259645 L -2356.2823,90.717494 L -2361.7456,96.11332 L -2367.2087,90.717494 z M -2321.8221,90.717494 L -2316.4262,85.32696 L -2311.0358,90.722812 L -2316.4316,96.11336 L -2321.8221,90.717494 z M -2351.4476,90.369002 L -2345.9844,84.905838 L -2340.5258,90.369916 L -2345.9862,95.693076 L -2351.4476,90.369002 z M -2337.8597,90.36902 L -2332.3963,84.905848 L -2326.9377,90.369916 L -2332.3981,95.693067 L -2337.8597,90.36902 z M -2421.908,83.365812 L -2419.1791,80.634207 L -2416.4503,77.902614 L -2411.0543,83.293137 L -2413.7495,85.991054 L -2416.5177,88.688971 L -2421.908,83.365812 z M -2397.5338,83.365812 L -2392.0759,77.902614 L -2386.68,83.293147 L -2392.1433,88.688954 L -2397.5338,83.365812 z M -2376.5015,83.385632 L -2371.1976,77.903396 L -2365.7405,83.365812 L -2371.131,88.688971 L -2376.5015,83.385632 z M -2358.8711,83.365812 L -2353.4133,77.902614 L -2348.0174,83.293147 L -2353.4806,88.688954 L -2358.8711,83.365812 z M -2344.3753,83.293147 L -2338.9795,77.902614 L -2333.5215,83.365812 L -2338.912,88.688954 L -2344.3753,83.293147 z M -2330.1542,83.365812 L -2324.6962,77.902603 L -2319.3005,83.293147 L -2324.7638,88.688971 L -2330.1542,83.365812 z M -2312.4365,83.293137 L -2307.0408,77.902614 L -2301.5828,83.365812 L -2306.9733,88.688971 L -2312.4365,83.293137 z M -2291.4916,83.365815 L -2286.0338,77.902615 L -2280.6379,83.293141 L -2286.1011,88.688971 L -2291.4916,83.365815 z M -2267.1173,83.365814 L -2261.6593,77.902614 L -2256.2636,83.293139 L -2261.7268,88.688963 L -2267.1173,83.365814 z M -2351.3794,76.5692 L -2345.9835,71.178678 L -2340.5258,76.641876 L -2345.9162,81.965024 L -2351.3794,76.5692 z M -2337.7915,76.5692 L -2332.3956,71.178669 L -2326.9377,76.641867 L -2332.3282,81.965024 L -2337.7915,76.5692 z M -2367.2087,76.42912 L -2361.7456,70.971272 L -2356.2823,76.42913 L -2361.7456,81.824944 L -2367.2087,76.42912 z M -2321.8221,76.42912 L -2316.358,70.970378 L -2310.9667,76.361755 L -2316.4307,81.825853 L -2321.8221,76.42912 z M -2302.5608,75.645779 L -2297.0262,70.344206 L -2291.6362,75.662271 L -2297.0993,81.125441 L -2302.5608,75.645779 z M -2386.468,75.660399 L -2381.0768,70.269074 L -2375.6854,75.660399 L -2381.0768,80.984448 L -2386.468,75.660399 z M -2409.0932,75.308464 L -2403.6973,69.917932 L -2398.3068,75.313784 L -2403.7027,80.704317 L -2409.0932,75.308464 z M -2279.7974,75.308397 L -2274.4742,69.850654 L -2269.0111,75.308468 L -2274.4743,80.704284 L -2279.7974,75.308397 z M -2358.4516,69.496789 L -2353.0604,64.105471 L -2347.669,69.496797 L -2353.0604,74.820836 L -2358.4516,69.496789 z M -2330.5071,69.425014 L -2325.1114,64.03448 L -2319.6535,69.497679 L -2325.0439,74.820836 L -2330.5071,69.425014 z M -2344.3753,69.144852 L -2341.6433,66.415487 L -2338.9111,63.686112 L -2333.5199,69.077486 L -2336.2519,71.809528 L -2338.9839,74.541577 L -2344.3753,69.144852 z M -2376.0338,68.724598 L -2370.638,63.334077 L -2365.1802,68.797275 L -2370.5705,74.120423 L -2376.0338,68.724598 z M -2312.9968,68.724612 L -2307.6011,63.334068 L -2302.1432,68.797275 L -2307.5336,74.120431 L -2312.9968,68.724612 z M -2396.9061,67.323792 L -2391.4419,61.865051 L -2386.0505,67.256417 L -2391.5147,72.720517 L -2396.9061,67.323792 z M -2292.1247,67.323782 L -2286.6606,61.865042 L -2281.2692,67.256417 L -2286.7333,72.720517 L -2292.1247,67.323782 z M -2421.0684,66.13485 L -2415.677,60.743485 L -2410.2128,66.207584 L -2415.6097,71.59899 L -2421.0684,66.13485 z M -2267.8905,66.203133 L -2262.4945,60.812593 L -2257.1042,66.20845 L -2262.4999,71.59899 L -2267.8905,66.203133 z M -2132.914,62.353533 L -2123.9604,62.353533 L -2123.9604,69.917968 L -2132.914,69.917966 L -2132.914,62.353533 z M -1998.5284,62.353533 L -1989.8118,62.353533 L -1989.8118,69.917966 L -1998.5284,69.917968 L -1998.5284,62.353533 z M -1954.8071,62.353533 L -1948.7835,62.353533 L -1948.7835,69.357638 L -1954.8071,69.357638 L -1954.8071,62.353533 z M -1944.581,62.353533 L -1938.5574,62.353533 L -1938.5574,69.357638 L -1944.581,69.357638 L -1944.581,62.353533 z M -2366.1562,61.792316 L -2360.7649,56.400942 L -2355.3008,61.865032 L -2360.6973,67.256438 L -2366.1562,61.792316 z M -2322.87,61.793239 L -2317.4096,56.47009 L -2311.948,61.794139 L -2317.4114,67.257307 L -2322.87,61.793239 z M -2337.4395,60.811723 L -2331.9761,55.348523 L -2326.5166,60.813544 L -2331.9797,66.276742 L -2337.4395,60.811723 z M -2351.7277,60.811703 L -2349.032,58.116034 L -2346.3364,55.420375 L -2340.9451,60.811703 L -2343.6044,63.473722 L -2346.3364,66.135751 L -2351.7277,60.811703 z M -2385.3465,60.392353 L -2379.8888,54.929153 L -2374.4927,60.319687 L -2379.9561,65.715498 L -2385.3465,60.392353 z M -2303.6787,60.392342 L -2298.2209,54.929144 L -2292.825,60.319687 L -2298.2884,65.715508 L -2303.6787,60.392342 z M -2408.0399,58.571281 L -2402.582,53.108083 L -2397.1861,58.498616 L -2402.6494,63.89443 L -2408.0399,58.571281 z M -2280.9855,58.571281 L -2275.5276,53.108083 L -2270.1318,58.498616 L -2275.595,63.894439 L -2280.9855,58.571281 z M -2374.5611,53.667554 L -2369.1697,48.27619 L -2363.7057,53.74027 L -2369.1024,59.131675 L -2374.5611,53.667554 z M -2314.466,53.667554 L -2309.0745,48.276179 L -2303.6103,53.74027 L -2309.0071,59.131675 L -2314.466,53.667554 z M -2359.2241,51.914752 L -2356.526,49.219492 L -2353.8282,46.524231 L -2348.3704,51.987428 L -2351.0292,54.649001 L -2353.7607,57.310575 L -2359.2241,51.914752 z M -2329.7349,51.986525 L -2324.3436,46.5952 L -2318.9523,51.986525 L -2324.3436,57.310575 L -2329.7349,51.986525 z M -2344.3753,51.354419 L -2338.9795,45.963898 L -2333.5215,51.427095 L -2338.912,56.750253 L -2344.3753,51.354419 z M -2395.2252,51.214348 L -2389.8292,45.823816 L -2384.4388,51.219667 L -2389.8346,56.610202 L -2395.2252,51.214348 z M -2293.713,51.306826 L -2288.3416,45.757351 L -2282.8792,51.214348 L -2288.3423,56.610163 L -2293.713,51.306826 z M -2419.8077,49.044829 L -2414.3444,43.581623 L -2408.8848,49.046642 L -2414.3482,54.509842 L -2419.8077,49.044829 z M -2269.2195,49.044829 L -2263.7562,43.581623 L -2258.2967,49.046642 L -2263.7598,54.509842 L -2269.2195,49.044829 z M -2383.3181,44.630485 L -2377.854,39.171743 L -2372.4626,44.563128 L -2377.9267,50.027209 L -2383.3181,44.630485 z M -2305.7126,44.630485 L -2300.2486,39.171753 L -2294.8572,44.563117 L -2300.3212,50.027219 L -2305.7126,44.630485 z M -2367.6289,42.669344 L -2364.8969,39.939968 L -2362.1647,37.210601 L -2356.7733,42.601968 L -2359.5055,45.334018 L -2362.2375,48.066068 L -2367.6289,42.669344 z M -2321.4017,42.669334 L -2315.9386,37.211534 L -2310.6154,42.671998 L -2315.9413,48.065157 L -2321.4017,42.669334 z M -2406.2197,41.760523 L -2400.7566,36.297354 L -2395.3023,41.756858 L -2400.8142,47.049903 L -2406.2197,41.760523 z M -2282.8064,41.761425 L -2277.3486,36.298226 L -2271.9527,41.688769 L -2277.416,47.08459 L -2282.8064,41.761425 z M -2336.7389,41.480401 L -2331.2758,36.017193 L -2325.816,41.482214 L -2331.2794,46.945411 L -2336.7389,41.480401 z M -2352.4282,41.480372 L -2347.0368,36.089045 L -2341.6454,41.480372 L -2347.0368,46.80442 L -2352.4282,41.480372 z M -2392.7717,35.45685 L -2387.3805,30.065525 L -2381.9892,35.45685 L -2387.3805,40.780898 L -2392.7717,35.45685 z M -2296.2544,35.45777 L -2290.7939,30.134653 L -2285.3335,35.45777 L -2290.7939,40.78089 L -2296.2544,35.45777 z M -2376.7342,32.723512 L -2374.0363,30.028242 L -2371.3383,27.332978 L -2365.9479,32.728831 L -2368.6459,35.424093 L -2371.3438,38.119365 L -2376.7342,32.723512 z M -2312.2965,32.723512 L -2306.8331,27.265693 L -2301.5102,32.726177 L -2306.836,38.119335 L -2312.2965,32.723512 z M -2360.6921,31.115199 L -2355.2342,25.651991 L -2349.8385,31.042524 L -2355.3018,36.438347 L -2360.6921,31.115199 z M -2328.3331,31.115188 L -2322.8754,25.651991 L -2317.4795,31.042524 L -2322.9426,36.438347 L -2328.3331,31.115188 z M -2344.3753,30.482191 L -2338.9111,25.02346 L -2333.5199,30.414834 L -2338.9839,35.878916 L -2344.3753,30.482191 z M -2402.2965,25.091667 L -2396.8387,19.628459 L -2391.4428,25.019002 L -2396.9061,30.414815 L -2402.2965,25.091667 z M -2286.0293,25.090757 L -2280.566,19.627598 L -2275.1074,25.091659 L -2280.5678,30.414815 L -2286.0293,25.090757 z M -2386.2598,21.797106 L -2380.7967,16.339295 L -2375.4734,21.799771 L -2380.7993,27.192937 L -2386.2598,21.797106 z M -2302.7709,21.797106 L -2297.3068,16.338365 L -2291.9154,21.72974 L -2297.3794,27.193829 L -2302.7709,21.797106 z M -2369.4498,19.976036 L -2363.9859,14.517304 L -2358.5945,19.908672 L -2364.0586,25.372771 L -2369.4498,19.976036 z M -2319.5808,19.976036 L -2314.1166,14.517304 L -2308.7252,19.908681 L -2314.1894,25.372761 L -2319.5808,19.976036 z M -2352.7802,18.85532 L -2347.457,13.397569 L -2341.9938,18.85539 L -2347.457,24.251203 L -2352.7802,18.85532 z M -2336.2505,18.85532 L -2330.9275,13.397569 L -2325.4642,18.85539 L -2330.9275,24.251203 L -2336.2505,18.85532 z M -2378.5552,8.2091439 L -2373.0912,2.7504029 L -2367.6998,8.1417781 L -2373.164,13.605868 L -2378.5552,8.2091439 z M -2310.0552,8.2091439 L -2304.591,2.7504029 L -2299.1997,8.1417681 L -2304.6638,13.605868 L -2310.0552,8.2091439 z M -2361.8138,6.8801301 L -2356.4224,1.4887649 L -2350.9583,6.9528549 L -2356.3549,12.34426 L -2361.8138,6.8801301 z M -2327.2135,6.8801301 L -2321.822,1.4887649 L -2316.358,6.9528648 L -2321.7547,12.34427 L -2327.2135,6.8801301 z M -2344.3753,6.1079131 L -2338.9111,0.6491719 L -2333.5199,6.040547 L -2338.9839,11.504647 L -2344.3753,6.1079131 z"
       id="path2453"
       style="fill:#000000" />
  </g>
</svg>
