<?xml version="1.0" encoding="UTF-8" standalone="no"?>
<!-- Created with Inkscape (http://www.inkscape.org/) -->

<svg
   xmlns:dc="http://purl.org/dc/elements/1.1/"
   xmlns:cc="http://creativecommons.org/ns#"
   xmlns:rdf="http://www.w3.org/1999/02/22-rdf-syntax-ns#"
   xmlns:svg="http://www.w3.org/2000/svg"
   xmlns="http://www.w3.org/2000/svg"
   version="1.1"
   width="538.58264"
   height="285.23621"
   id="svg14208">
  <defs
     id="defs14210">
    <clipPath
       id="clipPath13932">
      <path
         d="m -1.4174,839.55 651.96,0 0,-839.52 -651.96,0 0,839.52 z"
         id="path13934" />
    </clipPath>
    <clipPath
       id="clipPath13938">
      <path
         d="m 20.079,817.504 612.284,0 0,-796.535 -612.284,0 0,796.535 z"
         id="path13940" />
    </clipPath>
    <clipPath
       id="clipPath13944">
      <path
         d="m 415.599,762.638 184.964,0 0,-119.055 -184.964,0 0,119.055 z"
         id="path13946" />
    </clipPath>
    <clipPath
       id="clipPath13950">
      <path
         d="m 28.346,29.764 595.275,0 0,780 -595.275,0 0,-780 z"
         id="path13952" />
    </clipPath>
  </defs>
  <metadata
     id="metadata14213">
    <rdf:RDF>
      <cc:Work
         rdf:about="">
        <dc:format>image/svg+xml</dc:format>
        <dc:type
           rdf:resource="http://purl.org/dc/dcmitype/StillImage" />
        <dc:title></dc:title>
      </cc:Work>
    </rdf:RDF>
  </metadata>
  <g
     transform="translate(-0.98712634,-195.68733)"
     id="layer1">
    <g
       transform="matrix(4.0574696,0,0,-4.0574696,-1839.5043,3280.5572)"
       id="g13928">
      <g
         clip-path="url(#clipPath13932)"
         id="g13930">
        <g
           clip-path="url(#clipPath13938)"
           id="g13936">
          <g
             clip-path="url(#clipPath13944)"
             id="g13942">
            <g
               clip-path="url(#clipPath13950)"
               id="g13948">
              <g
                 id="g13954">
                <path
                   d="m 485.376,743.384 27.489,16.038 0,-10.984 -8.646,-5.054 8.646,-5.054 0,-10.984 -27.489,16.038"
                   id="path13956"
                   style="fill:#fdb813;fill-opacity:1;fill-rule:nonzero;stroke:none" />
                <path
                   d="m 482.256,709.708 -27.777,15.787 9.513,5.492 8.755,-4.96 -0.001,10.014 9.512,5.492 -0.002,-31.825"
                   id="path13958"
                   style="fill:#295baa;fill-opacity:1;fill-rule:nonzero;stroke:none" />
                <path
                   d="m 512.958,723.805 0.006,-31.949 -9.513,5.492 -0.003,10.085 -8.75,-5.03 -9.512,5.492 27.772,15.91"
                   id="path13960"
                   style="fill:#b72837;fill-opacity:1;fill-rule:nonzero;stroke:none" />
                <path
                   d="m 527.843,723.871 1.801,0 -0.053,-0.327 -1.349,0 0,-1.08 1.128,0 0,-0.342 -1.128,0 0,-1.205 1.45,0 0,-0.341 -1.849,0 0,3.295"
                   id="path13962"
                   style="fill:#231f20;fill-opacity:1;fill-rule:nonzero;stroke:none" />
                <path
                   d="m 530.354,724.015 0.374,0.072 c 0,0 0.063,-0.202 0.063,-0.567 l 0,-0.557 c 0,-0.12 -0.01,-0.264 -0.01,-0.264 0.235,0.23 0.432,0.322 0.687,0.322 0.571,0 0.927,-0.466 0.927,-1.215 0,-0.769 -0.38,-1.288 -0.951,-1.288 -0.25,0 -0.524,0.14 -0.658,0.317 -0.01,-0.1 -0.019,-0.163 -0.067,-0.259 l -0.375,0 c 0.053,0.115 0.072,0.274 0.072,0.596 l 0,2.353 c 0,0.312 -0.062,0.49 -0.062,0.49 z m 0.432,-2.877 c 0.125,-0.163 0.365,-0.288 0.591,-0.288 0.163,0 0.345,0.086 0.432,0.211 0.086,0.13 0.168,0.365 0.168,0.768 0,0.317 -0.039,0.505 -0.139,0.644 -0.092,0.13 -0.265,0.207 -0.452,0.207 -0.235,0 -0.471,-0.135 -0.6,-0.313 l 0,-1.229"
                   id="path13964"
                   style="fill:#231f20;fill-opacity:1;fill-rule:nonzero;stroke:none" />
                <path
                   d="m 534.737,721.061 0.144,-0.24 c -0.211,-0.192 -0.499,-0.298 -0.806,-0.298 -0.663,0 -1.062,0.48 -1.062,1.273 0,0.403 0.087,0.663 0.288,0.903 0.192,0.226 0.428,0.331 0.716,0.331 0.259,0 0.485,-0.091 0.648,-0.259 0.207,-0.211 0.264,-0.437 0.274,-1.009 l 0,-0.053 -1.494,0 0,-0.057 c 0,-0.226 0.029,-0.399 0.111,-0.524 0.134,-0.206 0.355,-0.293 0.595,-0.293 0.231,0 0.418,0.072 0.586,0.226 z m -1.292,0.932 1.096,0 c -0.005,0.259 -0.039,0.418 -0.111,0.533 -0.082,0.13 -0.25,0.211 -0.432,0.211 -0.341,0 -0.533,-0.25 -0.553,-0.744"
                   id="path13966"
                   style="fill:#231f20;fill-opacity:1;fill-rule:nonzero;stroke:none" />
                <path
                   d="m 535.682,722.929 0.374,0.101 c 0,0 0.092,-0.187 0.077,-0.389 0.173,0.245 0.428,0.399 0.673,0.399 0.062,0 0.129,-0.024 0.129,-0.024 l -0.154,-0.408 c -0.024,0.009 -0.067,0.019 -0.105,0.019 -0.144,0 -0.288,-0.063 -0.399,-0.173 -0.11,-0.11 -0.139,-0.183 -0.139,-0.38 l 0,-1.498 -0.375,0 0,1.844 c 0,0.351 -0.081,0.509 -0.081,0.509"
                   id="path13968"
                   style="fill:#231f20;fill-opacity:1;fill-rule:nonzero;stroke:none" />
                <path
                   d="m 537.452,724.015 0.374,0.072 c 0,0 0.063,-0.202 0.063,-0.567 l 0,-0.557 c 0,-0.154 -0.015,-0.327 -0.015,-0.327 0.216,0.202 0.49,0.38 0.798,0.38 0.288,0 0.547,-0.159 0.614,-0.38 0.029,-0.096 0.039,-0.172 0.039,-0.345 l 0,-1.715 -0.37,0 0,1.652 c 0,0.178 -0.024,0.288 -0.091,0.356 -0.058,0.057 -0.159,0.096 -0.279,0.096 -0.231,0 -0.49,-0.149 -0.696,-0.404 l 0,-1.7 -0.375,0 0,2.949 c 0,0.312 -0.062,0.49 -0.062,0.49"
                   id="path13970"
                   style="fill:#231f20;fill-opacity:1;fill-rule:nonzero;stroke:none" />
                <path
                   d="m 540.163,722.708 c 0.317,0.212 0.658,0.322 1.004,0.322 0.332,0 0.562,-0.129 0.663,-0.374 0.053,-0.13 0.058,-0.312 0.053,-0.529 l -0.019,-0.787 c -0.01,-0.389 0.014,-0.49 0.192,-0.586 l -0.192,-0.269 c -0.164,0.053 -0.284,0.182 -0.327,0.35 -0.231,-0.23 -0.418,-0.321 -0.692,-0.321 -0.59,0 -0.768,0.36 -0.768,0.681 0,0.543 0.466,0.86 1.268,0.86 0.101,0 0.168,-0.004 0.168,-0.004 l 0,0.168 c 0,0.211 -0.01,0.297 -0.077,0.374 -0.077,0.087 -0.173,0.13 -0.322,0.13 -0.269,0 -0.609,-0.144 -0.763,-0.284 l -0.188,0.269 z m 1.34,-0.917 c -0.062,0.005 -0.12,0.01 -0.187,0.01 -0.605,0 -0.821,-0.207 -0.821,-0.572 0,-0.283 0.139,-0.437 0.413,-0.437 0.245,0 0.471,0.149 0.581,0.375 l 0.014,0.624"
                   id="path13972"
                   style="fill:#231f20;fill-opacity:1;fill-rule:nonzero;stroke:none" />
                <path
                   d="m 542.75,722.929 0.375,0.101 c 0,0 0.091,-0.187 0.077,-0.389 0.173,0.245 0.427,0.399 0.672,0.399 0.063,0 0.13,-0.024 0.13,-0.024 l -0.154,-0.408 c -0.024,0.009 -0.067,0.019 -0.105,0.019 -0.144,0 -0.289,-0.063 -0.399,-0.173 -0.111,-0.11 -0.139,-0.183 -0.139,-0.38 l 0,-1.498 -0.375,0 0,1.844 c 0,0.351 -0.082,0.509 -0.082,0.509"
                   id="path13974"
                   style="fill:#231f20;fill-opacity:1;fill-rule:nonzero;stroke:none" />
                <path
                   d="m 546.384,724.02 0,-2.671 c 0,-0.413 0.019,-0.634 0.072,-0.773 l -0.384,0 c 0,0 -0.049,0.12 -0.053,0.245 -0.173,-0.197 -0.356,-0.279 -0.634,-0.279 -0.62,0 -0.975,0.447 -0.975,1.211 0,0.509 0.168,0.883 0.494,1.109 0.154,0.106 0.288,0.149 0.461,0.149 0.269,0 0.505,-0.11 0.649,-0.303 0,0 -0.005,0.197 -0.005,0.37 l 0,1.004 0.375,-0.062 z m -0.38,-1.566 c -0.12,0.168 -0.298,0.25 -0.581,0.25 -0.187,0 -0.346,-0.087 -0.447,-0.25 -0.115,-0.183 -0.153,-0.356 -0.153,-0.692 0,-0.278 0.019,-0.485 0.096,-0.624 0.11,-0.197 0.259,-0.279 0.48,-0.279 0.197,0 0.307,0.044 0.461,0.154 0.101,0.072 0.144,0.173 0.144,0.173 l 0,1.268"
                   id="path13976"
                   style="fill:#231f20;fill-opacity:1;fill-rule:nonzero;stroke:none" />
                <path
                   d="m 547.507,721.676 0.91724,0 0,0.36511 -0.91724,0 0,-0.36511 z"
                   id="path13978"
                   style="fill:#231f20;fill-opacity:1;fill-rule:nonzero;stroke:none" />
                <path
                   d="m 549.516,723.871 0.39868,0 0,-3.2946 -0.39868,0 0,3.2946 z m 1.686,0 0.504,0 -1.326,-1.547 1.316,-1.748 -0.504,0 -1.258,1.743 1.268,1.552"
                   id="path13980"
                   style="fill:#231f20;fill-opacity:1;fill-rule:nonzero;stroke:none" />
                <path
                   d="m 552.228,722.708 c 0.317,0.212 0.658,0.322 1.003,0.322 0.332,0 0.562,-0.129 0.663,-0.374 0.053,-0.13 0.058,-0.312 0.053,-0.529 l -0.019,-0.787 c -0.01,-0.389 0.014,-0.49 0.192,-0.586 l -0.192,-0.269 c -0.163,0.053 -0.284,0.182 -0.327,0.35 -0.23,-0.23 -0.418,-0.321 -0.691,-0.321 -0.591,0 -0.769,0.36 -0.769,0.681 0,0.543 0.466,0.86 1.268,0.86 0.101,0 0.168,-0.004 0.168,-0.004 l 0,0.168 c 0,0.211 -0.009,0.297 -0.077,0.374 -0.076,0.087 -0.172,0.13 -0.321,0.13 -0.269,0 -0.61,-0.144 -0.764,-0.284 l -0.187,0.269 z m 1.34,-0.917 c -0.063,0.005 -0.12,0.01 -0.188,0.01 -0.605,0 -0.821,-0.207 -0.821,-0.572 0,-0.283 0.139,-0.437 0.413,-0.437 0.245,0 0.471,0.149 0.581,0.375 l 0.015,0.624"
                   id="path13982"
                   style="fill:#231f20;fill-opacity:1;fill-rule:nonzero;stroke:none" />
                <path
                   d="m 554.815,722.929 0.374,0.101 c 0,0 0.091,-0.187 0.077,-0.389 0.173,0.245 0.427,0.399 0.672,0.399 0.063,0 0.13,-0.024 0.13,-0.024 l -0.154,-0.408 c -0.024,0.009 -0.067,0.019 -0.105,0.019 -0.144,0 -0.288,-0.063 -0.399,-0.173 -0.11,-0.11 -0.139,-0.183 -0.139,-0.38 l 0,-1.498 -0.375,0 0,1.844 c 0,0.351 -0.081,0.509 -0.081,0.509"
                   id="path13984"
                   style="fill:#231f20;fill-opacity:1;fill-rule:nonzero;stroke:none" />
                <path
                   d="m 557.026,721.056 c 0,-0.187 0.029,-0.24 0.135,-0.24 0.014,0 0.048,0.01 0.048,0.01 l 0.077,-0.245 c -0.096,-0.043 -0.14,-0.053 -0.241,-0.053 -0.115,0 -0.211,0.034 -0.283,0.101 -0.077,0.067 -0.115,0.168 -0.115,0.341 l 0,2.536 c 0,0.312 -0.058,0.49 -0.058,0.49 l 0.375,0.072 c 0,0 0.062,-0.202 0.062,-0.567 l 0,-2.445"
                   id="path13986"
                   style="fill:#231f20;fill-opacity:1;fill-rule:nonzero;stroke:none" />
                <path
                   d="m 559.433,722.867 -0.139,-0.279 c -0.211,0.101 -0.389,0.173 -0.6,0.173 -0.274,0 -0.452,-0.158 -0.452,-0.394 0,-0.182 0.091,-0.293 0.346,-0.345 l 0.317,-0.067 c 0.432,-0.092 0.639,-0.313 0.639,-0.668 0,-0.466 -0.365,-0.783 -0.903,-0.783 -0.303,0 -0.634,0.091 -0.879,0.24 l 0.144,0.279 c 0.245,-0.149 0.495,-0.226 0.759,-0.226 0.293,0 0.485,0.159 0.485,0.413 0,0.216 -0.12,0.336 -0.394,0.394 l -0.298,0.062 c -0.393,0.082 -0.605,0.327 -0.605,0.658 0,0.432 0.351,0.735 0.85,0.735 0.25,0 0.529,-0.077 0.73,-0.192"
                   id="path13988"
                   style="fill:#231f20;fill-opacity:1;fill-rule:nonzero;stroke:none" />
                <path
                   d="m 560.469,721.676 0.91748,0 0,0.36511 -0.91748,0 0,-0.36511 z"
                   id="path13990"
                   style="fill:#231f20;fill-opacity:1;fill-rule:nonzero;stroke:none" />
                <path
                   d="m 562.502,723.871 0.389,0 0,-2.219 c 0,-0.163 0.015,-0.375 0.058,-0.476 0.062,-0.144 0.24,-0.321 0.643,-0.321 0.274,0 0.481,0.072 0.582,0.206 0.11,0.149 0.125,0.293 0.125,0.514 l 0,2.296 0.389,0 0,-2.344 c 0,-0.399 -0.053,-0.586 -0.25,-0.754 -0.202,-0.173 -0.466,-0.255 -0.865,-0.255 -0.509,0 -0.797,0.149 -0.974,0.476 -0.087,0.158 -0.097,0.37 -0.097,0.514 l 0,2.363"
                   id="path13992"
                   style="fill:#231f20;fill-opacity:1;fill-rule:nonzero;stroke:none" />
                <path
                   d="m 565.57,722.925 0.366,0.101 c 0,0 0.086,-0.178 0.086,-0.375 0.25,0.25 0.499,0.37 0.754,0.37 0.259,0 0.49,-0.14 0.586,-0.351 0.038,-0.086 0.058,-0.183 0.058,-0.279 l 0,-1.815 -0.38,0 0,1.619 c 0,0.254 -0.019,0.317 -0.086,0.398 -0.053,0.063 -0.154,0.101 -0.264,0.101 -0.193,0 -0.49,-0.154 -0.663,-0.336 l 0,-1.782 -0.365,0 0,1.844 c 0,0.341 -0.092,0.505 -0.092,0.505"
                   id="path13994"
                   style="fill:#231f20;fill-opacity:1;fill-rule:nonzero;stroke:none" />
                <path
                   d="m 568.349,722.958 0.389,0.063 0,-2.445 -0.389,0 0,2.382 z m 0.202,1.042 c 0.163,0 0.293,-0.129 0.293,-0.293 0,-0.163 -0.13,-0.293 -0.293,-0.293 -0.163,0 -0.293,0.13 -0.293,0.289 0,0.163 0.13,0.297 0.293,0.297"
                   id="path13996"
                   style="fill:#231f20;fill-opacity:1;fill-rule:nonzero;stroke:none" />
                <path
                   d="m 569.316,722.949 0.384,0.081 0.557,-1.647 c 0.067,-0.197 0.115,-0.408 0.115,-0.408 l 0.01,0 c 0,0 0.038,0.187 0.115,0.403 l 0.548,1.59 0.398,0 -0.898,-2.416 -0.37,0 -0.859,2.397"
                   id="path13998"
                   style="fill:#231f20;fill-opacity:1;fill-rule:nonzero;stroke:none" />
                <path
                   d="m 573.641,721.061 0.144,-0.24 c -0.212,-0.192 -0.5,-0.298 -0.807,-0.298 -0.663,0 -1.062,0.48 -1.062,1.273 0,0.403 0.087,0.663 0.289,0.903 0.192,0.226 0.427,0.331 0.715,0.331 0.26,0 0.485,-0.091 0.649,-0.259 0.206,-0.211 0.264,-0.437 0.273,-1.009 l 0,-0.053 -1.493,0 0,-0.057 c 0,-0.226 0.029,-0.399 0.11,-0.524 0.135,-0.206 0.356,-0.293 0.596,-0.293 0.23,0 0.417,0.072 0.586,0.226 z m -1.292,0.932 1.095,0 c -0.005,0.259 -0.039,0.418 -0.111,0.533 -0.081,0.13 -0.249,0.211 -0.432,0.211 -0.341,0 -0.533,-0.25 -0.552,-0.744"
                   id="path14000"
                   style="fill:#231f20;fill-opacity:1;fill-rule:nonzero;stroke:none" />
                <path
                   d="m 574.585,722.929 0.375,0.101 c 0,0 0.091,-0.187 0.076,-0.389 0.173,0.245 0.428,0.399 0.673,0.399 0.062,0 0.129,-0.024 0.129,-0.024 l -0.153,-0.408 c -0.024,0.009 -0.068,0.019 -0.106,0.019 -0.144,0 -0.288,-0.063 -0.398,-0.173 -0.111,-0.11 -0.14,-0.183 -0.14,-0.38 l 0,-1.498 -0.375,0 0,1.844 c 0,0.351 -0.081,0.509 -0.081,0.509"
                   id="path14002"
                   style="fill:#231f20;fill-opacity:1;fill-rule:nonzero;stroke:none" />
                <path
                   d="m 577.863,722.867 -0.139,-0.279 c -0.212,0.101 -0.389,0.173 -0.601,0.173 -0.274,0 -0.451,-0.158 -0.451,-0.394 0,-0.182 0.091,-0.293 0.346,-0.345 l 0.317,-0.067 c 0.432,-0.092 0.638,-0.313 0.638,-0.668 0,-0.466 -0.365,-0.783 -0.903,-0.783 -0.302,0 -0.634,0.091 -0.878,0.24 l 0.144,0.279 c 0.244,-0.149 0.494,-0.226 0.758,-0.226 0.293,0 0.486,0.159 0.486,0.413 0,0.216 -0.121,0.336 -0.394,0.394 l -0.298,0.062 c -0.394,0.082 -0.605,0.327 -0.605,0.658 0,0.432 0.35,0.735 0.85,0.735 0.249,0 0.528,-0.077 0.73,-0.192"
                   id="path14004"
                   style="fill:#231f20;fill-opacity:1;fill-rule:nonzero;stroke:none" />
                <path
                   d="m 578.735,722.958 0.389,0.063 0,-2.445 -0.389,0 0,2.382 z m 0.202,1.042 c 0.163,0 0.293,-0.129 0.293,-0.293 0,-0.163 -0.13,-0.293 -0.293,-0.293 -0.164,0 -0.293,0.13 -0.293,0.289 0,0.163 0.129,0.297 0.293,0.297"
                   id="path14006"
                   style="fill:#231f20;fill-opacity:1;fill-rule:nonzero;stroke:none" />
                <path
                   d="m 581.104,722.968 -0.116,-0.284 -0.499,0 0,-1.541 c 0,-0.264 0.072,-0.356 0.307,-0.356 0.106,0 0.169,0.015 0.235,0.048 l 0.053,-0.24 c -0.119,-0.062 -0.254,-0.096 -0.422,-0.096 -0.125,0 -0.221,0.024 -0.312,0.067 -0.168,0.082 -0.231,0.236 -0.231,0.476 l 0,1.642 -0.312,0 0,0.284 0.312,0 c 0,0.23 0.039,0.605 0.039,0.605 l 0.393,0.086 c 0,0 -0.048,-0.374 -0.048,-0.691 l 0.601,0"
                   id="path14008"
                   style="fill:#231f20;fill-opacity:1;fill-rule:nonzero;stroke:none" />
                <path
                   d="m 581.686,722.708 c 0.317,0.212 0.658,0.322 1.004,0.322 0.331,0 0.562,-0.129 0.663,-0.374 0.053,-0.13 0.057,-0.312 0.053,-0.529 l -0.02,-0.787 c -0.009,-0.389 0.015,-0.49 0.192,-0.586 l -0.192,-0.269 c -0.163,0.053 -0.283,0.182 -0.326,0.35 -0.231,-0.23 -0.418,-0.321 -0.692,-0.321 -0.591,0 -0.768,0.36 -0.768,0.681 0,0.543 0.466,0.86 1.268,0.86 0.1,0 0.168,-0.004 0.168,-0.004 l 0,0.168 c 0,0.211 -0.01,0.297 -0.077,0.374 -0.077,0.087 -0.173,0.13 -0.322,0.13 -0.269,0 -0.61,-0.144 -0.763,-0.284 l -0.188,0.269 z m 1.34,-0.917 c -0.062,0.005 -0.12,0.01 -0.187,0.01 -0.605,0 -0.821,-0.207 -0.821,-0.572 0,-0.283 0.139,-0.437 0.413,-0.437 0.245,0 0.47,0.149 0.581,0.375 l 0.014,0.624 z m -0.898,2.013 c 0.139,0 0.25,-0.111 0.25,-0.246 0,-0.139 -0.106,-0.254 -0.245,-0.254 -0.139,0 -0.25,0.115 -0.25,0.254 0,0.135 0.111,0.246 0.245,0.246 z m 0.994,0 c 0.135,0 0.25,-0.111 0.25,-0.246 0,-0.139 -0.111,-0.254 -0.245,-0.254 -0.139,0 -0.255,0.115 -0.255,0.254 0,0.135 0.111,0.246 0.25,0.246"
                   id="path14010"
                   style="fill:#231f20;fill-opacity:1;fill-rule:nonzero;stroke:none" />
                <path
                   d="m 584.777,722.968 c 0,0.317 0.048,0.691 0.048,0.691 l -0.393,-0.086 c 0,0 -0.039,-0.375 -0.039,-0.605 l -0.312,0 0,-0.284 0.312,0 0,-1.642 c 0,-0.24 0.063,-0.394 0.231,-0.476 0.091,-0.043 0.187,-0.067 0.312,-0.067 0.168,0 0.302,0.034 0.422,0.096 l -0.052,0.24 c -0.068,-0.033 -0.13,-0.048 -0.236,-0.048 -0.235,0 -0.307,0.092 -0.307,0.356 l 0,1.541 0.5,0 0.115,0.284 -0.601,0"
                   id="path14012"
                   style="fill:#231f20;fill-opacity:1;fill-rule:nonzero;stroke:none" />
                <path
                   d="m 527.779,694.852 0.371,0 0,-2.111 c 0,-0.156 0.013,-0.357 0.054,-0.453 0.06,-0.137 0.229,-0.306 0.613,-0.306 0.26,0 0.457,0.069 0.553,0.197 0.105,0.141 0.118,0.278 0.118,0.489 l 0,2.184 0.371,0 0,-2.23 c 0,-0.379 -0.051,-0.558 -0.238,-0.718 -0.192,-0.164 -0.443,-0.242 -0.823,-0.242 -0.484,0 -0.758,0.142 -0.927,0.453 -0.082,0.151 -0.092,0.352 -0.092,0.489 l 0,2.248"
                   id="path14014"
                   style="fill:#231f20;fill-opacity:1;fill-rule:nonzero;stroke:none" />
                <path
                   d="m 530.557,693.952 0.347,0.096 c 0,0 0.082,-0.169 0.082,-0.357 0.238,0.238 0.476,0.352 0.718,0.352 0.247,0 0.466,-0.132 0.557,-0.333 0.037,-0.083 0.055,-0.174 0.055,-0.265 l 0,-1.728 -0.361,0 0,1.54 c 0,0.242 -0.018,0.302 -0.082,0.38 -0.05,0.059 -0.146,0.095 -0.251,0.095 -0.183,0 -0.466,-0.146 -0.631,-0.32 l 0,-1.695 -0.347,0 0,1.755 c 0,0.324 -0.087,0.48 -0.087,0.48"
                   id="path14016"
                   style="fill:#231f20;fill-opacity:1;fill-rule:nonzero;stroke:none" />
                <path
                   d="m 533.06,693.984 0.37,0.059 0,-2.326 -0.37,0 0,2.267 z m 0.192,0.991 c 0.155,0 0.279,-0.123 0.279,-0.278 0,-0.156 -0.124,-0.279 -0.279,-0.279 -0.156,0 -0.279,0.123 -0.279,0.274 0,0.155 0.123,0.283 0.279,0.283"
                   id="path14018"
                   style="fill:#231f20;fill-opacity:1;fill-rule:nonzero;stroke:none" />
                <path
                   d="m 533.84,693.975 0.366,0.077 0.53,-1.567 c 0.064,-0.187 0.109,-0.389 0.109,-0.389 l 0.01,0 c 0,0 0.036,0.179 0.109,0.384 l 0.521,1.513 0.379,0 -0.854,-2.299 -0.352,0 -0.818,2.281"
                   id="path14020"
                   style="fill:#231f20;fill-opacity:1;fill-rule:nonzero;stroke:none" />
                <path
                   d="m 537.815,692.179 0.137,-0.229 c -0.201,-0.183 -0.475,-0.283 -0.768,-0.283 -0.631,0 -1.01,0.457 -1.01,1.211 0,0.384 0.082,0.63 0.274,0.859 0.183,0.215 0.407,0.315 0.681,0.315 0.247,0 0.462,-0.087 0.617,-0.246 0.197,-0.202 0.251,-0.416 0.261,-0.96 l 0,-0.05 -1.422,0 0,-0.055 c 0,-0.215 0.028,-0.379 0.106,-0.498 0.127,-0.197 0.338,-0.279 0.566,-0.279 0.22,0 0.398,0.068 0.558,0.215 z m -1.23,0.886 1.042,0 c -0.004,0.247 -0.036,0.398 -0.105,0.507 -0.077,0.124 -0.237,0.201 -0.411,0.201 -0.324,0 -0.507,-0.237 -0.526,-0.708"
                   id="path14022"
                   style="fill:#231f20;fill-opacity:1;fill-rule:nonzero;stroke:none" />
                <path
                   d="m 538.572,693.956 0.357,0.096 c 0,0 0.086,-0.178 0.073,-0.37 0.164,0.233 0.407,0.379 0.64,0.379 0.059,0 0.123,-0.022 0.123,-0.022 l -0.146,-0.389 c -0.023,0.009 -0.064,0.018 -0.101,0.018 -0.137,0 -0.274,-0.059 -0.379,-0.164 -0.105,-0.105 -0.133,-0.174 -0.133,-0.361 l 0,-1.426 -0.356,0 0,1.755 c 0,0.334 -0.078,0.484 -0.078,0.484"
                   id="path14024"
                   style="fill:#231f20;fill-opacity:1;fill-rule:nonzero;stroke:none" />
                <path
                   d="m 541.552,693.897 -0.133,-0.265 c -0.201,0.096 -0.37,0.164 -0.571,0.164 -0.261,0 -0.43,-0.15 -0.43,-0.374 0,-0.174 0.087,-0.279 0.329,-0.329 l 0.302,-0.064 c 0.411,-0.087 0.608,-0.297 0.608,-0.635 0,-0.444 -0.348,-0.745 -0.86,-0.745 -0.287,0 -0.603,0.086 -0.836,0.228 l 0.137,0.265 c 0.233,-0.142 0.471,-0.215 0.722,-0.215 0.279,0 0.462,0.151 0.462,0.393 0,0.206 -0.114,0.32 -0.375,0.375 l -0.283,0.06 c -0.375,0.077 -0.576,0.31 -0.576,0.626 0,0.411 0.334,0.699 0.809,0.699 0.238,0 0.503,-0.074 0.695,-0.183"
                   id="path14026"
                   style="fill:#231f20;fill-opacity:1;fill-rule:nonzero;stroke:none" />
                <path
                   d="m 542.241,693.984 0.37,0.059 0,-2.326 -0.37,0 0,2.267 z m 0.192,0.991 c 0.155,0 0.278,-0.123 0.278,-0.278 0,-0.156 -0.123,-0.279 -0.278,-0.279 -0.156,0 -0.279,0.123 -0.279,0.274 0,0.155 0.123,0.283 0.279,0.283"
                   id="path14028"
                   style="fill:#231f20;fill-opacity:1;fill-rule:nonzero;stroke:none" />
                <path
                   d="m 544.356,693.993 -0.11,-0.27 -0.475,0 0,-1.467 c 0,-0.251 0.068,-0.338 0.292,-0.338 0.101,0 0.16,0.014 0.224,0.046 l 0.05,-0.229 c -0.114,-0.059 -0.242,-0.091 -0.402,-0.091 -0.119,0 -0.21,0.023 -0.297,0.064 -0.16,0.078 -0.219,0.224 -0.219,0.452 l 0,1.563 -0.297,0 0,0.27 0.297,0 c 0,0.219 0.036,0.576 0.036,0.576 l 0.375,0.082 c 0,0 -0.046,-0.356 -0.046,-0.658 l 0.572,0"
                   id="path14030"
                   style="fill:#231f20;fill-opacity:1;fill-rule:nonzero;stroke:none" />
                <path
                   d="m 544.77,693.746 c 0.302,0.201 0.626,0.306 0.955,0.306 0.315,0 0.535,-0.123 0.631,-0.356 0.05,-0.124 0.055,-0.297 0.05,-0.503 l -0.018,-0.749 c -0.009,-0.37 0.013,-0.466 0.183,-0.558 l -0.183,-0.256 c -0.156,0.051 -0.27,0.174 -0.311,0.334 -0.219,-0.219 -0.397,-0.306 -0.658,-0.306 -0.562,0 -0.731,0.342 -0.731,0.649 0,0.516 0.443,0.818 1.206,0.818 0.096,0 0.16,-0.005 0.16,-0.005 l 0,0.16 c 0,0.201 -0.009,0.283 -0.073,0.357 -0.073,0.082 -0.164,0.123 -0.306,0.123 -0.256,0 -0.58,-0.137 -0.727,-0.27 l -0.178,0.256 z m 1.275,-0.873 c -0.059,0.005 -0.114,0.009 -0.178,0.009 -0.576,0 -0.782,-0.196 -0.782,-0.543 0,-0.27 0.133,-0.416 0.394,-0.416 0.233,0 0.447,0.141 0.552,0.356 l 0.014,0.594 z m -0.854,1.915 c 0.132,0 0.237,-0.105 0.237,-0.233 0,-0.133 -0.1,-0.242 -0.233,-0.242 -0.132,0 -0.237,0.109 -0.237,0.242 0,0.128 0.105,0.233 0.233,0.233 z m 0.945,0 c 0.128,0 0.238,-0.105 0.238,-0.233 0,-0.133 -0.105,-0.242 -0.233,-0.242 -0.132,0 -0.242,0.109 -0.242,0.242 0,0.128 0.105,0.233 0.237,0.233"
                   id="path14032"
                   style="fill:#231f20;fill-opacity:1;fill-rule:nonzero;stroke:none" />
                <path
                   d="m 548.142,693.993 -0.11,-0.27 -0.475,0 0,-1.467 c 0,-0.251 0.068,-0.338 0.292,-0.338 0.101,0 0.16,0.014 0.224,0.046 l 0.05,-0.229 c -0.114,-0.059 -0.242,-0.091 -0.402,-0.091 -0.119,0 -0.21,0.023 -0.297,0.064 -0.16,0.078 -0.219,0.224 -0.219,0.452 l 0,1.563 -0.297,0 0,0.27 0.297,0 c 0,0.219 0.036,0.576 0.036,0.576 l 0.375,0.082 c 0,0 -0.046,-0.356 -0.046,-0.658 l 0.572,0"
                   id="path14034"
                   style="fill:#231f20;fill-opacity:1;fill-rule:nonzero;stroke:none" />
                <path
                   d="m 550.014,693.897 -0.132,-0.265 c -0.202,0.096 -0.371,0.164 -0.572,0.164 -0.26,0 -0.429,-0.15 -0.429,-0.374 0,-0.174 0.087,-0.279 0.329,-0.329 l 0.301,-0.064 c 0.412,-0.087 0.608,-0.297 0.608,-0.635 0,-0.444 -0.347,-0.745 -0.859,-0.745 -0.288,0 -0.603,0.086 -0.836,0.228 l 0.137,0.265 c 0.233,-0.142 0.47,-0.215 0.722,-0.215 0.279,0 0.461,0.151 0.461,0.393 0,0.206 -0.114,0.32 -0.374,0.375 l -0.283,0.06 c -0.375,0.077 -0.576,0.31 -0.576,0.626 0,0.411 0.333,0.699 0.809,0.699 0.237,0 0.502,-0.074 0.694,-0.183"
                   id="path14036"
                   style="fill:#231f20;fill-opacity:1;fill-rule:nonzero;stroke:none" />
                <path
                   d="m 550.644,694.989 0.356,0.069 c 0,0 0.06,-0.192 0.06,-0.54 l 0,-2.801 -0.357,0 0,2.806 c 0,0.297 -0.059,0.466 -0.059,0.466 z m 1.298,-0.996 0.448,0 -0.896,-0.987 1.101,-1.289 -0.475,0 -1.047,1.289 0.869,0.987"
                   id="path14038"
                   style="fill:#231f20;fill-opacity:1;fill-rule:nonzero;stroke:none" />
                <path
                   d="m 553.33,692.174 c 0,-0.178 0.028,-0.228 0.128,-0.228 0.014,0 0.046,0.009 0.046,0.009 l 0.073,-0.233 c -0.091,-0.041 -0.133,-0.05 -0.229,-0.05 -0.109,0 -0.201,0.031 -0.269,0.095 -0.073,0.064 -0.11,0.16 -0.11,0.325 l 0,2.413 c 0,0.297 -0.055,0.466 -0.055,0.466 l 0.357,0.068 c 0,0 0.059,-0.192 0.059,-0.539 l 0,-2.326"
                   id="path14040"
                   style="fill:#231f20;fill-opacity:1;fill-rule:nonzero;stroke:none" />
                <path
                   d="m 554.101,693.984 0.37,0.059 0,-2.326 -0.37,0 0,2.267 z m 0.192,0.991 c 0.156,0 0.279,-0.123 0.279,-0.278 0,-0.156 -0.123,-0.279 -0.279,-0.279 -0.155,0 -0.278,0.123 -0.278,0.274 0,0.155 0.123,0.283 0.278,0.283"
                   id="path14042"
                   style="fill:#231f20;fill-opacity:1;fill-rule:nonzero;stroke:none" />
                <path
                   d="m 555.156,693.952 0.347,0.096 c 0,0 0.082,-0.169 0.082,-0.357 0.238,0.238 0.475,0.352 0.718,0.352 0.247,0 0.466,-0.132 0.557,-0.333 0.037,-0.083 0.055,-0.174 0.055,-0.265 l 0,-1.728 -0.361,0 0,1.54 c 0,0.242 -0.018,0.302 -0.082,0.38 -0.05,0.059 -0.146,0.095 -0.252,0.095 -0.182,0 -0.466,-0.146 -0.63,-0.32 l 0,-1.695 -0.347,0 0,1.755 c 0,0.324 -0.087,0.48 -0.087,0.48"
                   id="path14044"
                   style="fill:#231f20;fill-opacity:1;fill-rule:nonzero;stroke:none" />
                <path
                   d="m 557.659,693.984 0.37,0.059 0,-2.326 -0.37,0 0,2.267 z m 0.192,0.991 c 0.155,0 0.278,-0.123 0.278,-0.278 0,-0.156 -0.123,-0.279 -0.278,-0.279 -0.156,0 -0.279,0.123 -0.279,0.274 0,0.155 0.123,0.283 0.279,0.283"
                   id="path14046"
                   style="fill:#231f20;fill-opacity:1;fill-rule:nonzero;stroke:none" />
                <path
                   d="m 558.736,694.989 0.356,0.069 c 0,0 0.06,-0.192 0.06,-0.54 l 0,-2.801 -0.357,0 0,2.806 c 0,0.297 -0.059,0.466 -0.059,0.466 z m 1.298,-0.996 0.448,0 -0.896,-0.987 1.101,-1.289 -0.475,0 -1.046,1.289 0.868,0.987"
                   id="path14048"
                   style="fill:#231f20;fill-opacity:1;fill-rule:nonzero;stroke:none" />
                <path
                   d="m 561.047,693.975 0.352,0.068 0,-1.636 c 0,-0.215 0.032,-0.311 0.138,-0.384 0.073,-0.05 0.178,-0.077 0.278,-0.077 0.224,0 0.457,0.164 0.581,0.411 l 0,1.613 0.351,0.059 0,-1.658 c 0,-0.288 0.042,-0.402 0.156,-0.508 l -0.229,-0.242 c -0.151,0.124 -0.214,0.215 -0.246,0.366 -0.174,-0.233 -0.412,-0.348 -0.723,-0.348 -0.287,0 -0.502,0.124 -0.598,0.325 -0.041,0.087 -0.06,0.206 -0.06,0.338 l 0,1.673"
                   id="path14050"
                   style="fill:#231f20;fill-opacity:1;fill-rule:nonzero;stroke:none" />
                <path
                   d="m 563.478,693.965 0.347,0.083 c 0,0 0.082,-0.178 0.082,-0.338 0.151,0.169 0.43,0.342 0.663,0.342 0.224,0 0.448,-0.137 0.53,-0.379 0.219,0.233 0.498,0.379 0.731,0.379 0.338,0 0.572,-0.256 0.572,-0.617 l 0,-1.718 -0.366,0 0,1.682 c 0,0.219 -0.101,0.333 -0.293,0.333 -0.205,0 -0.365,-0.132 -0.603,-0.351 l 0,-1.664 -0.361,0 0,1.618 c 0,0.137 -0.014,0.228 -0.064,0.292 -0.055,0.064 -0.128,0.092 -0.233,0.092 -0.173,0 -0.343,-0.087 -0.58,-0.302 l 0,-1.7 -0.343,0 0,1.764 c 0,0.329 -0.082,0.484 -0.082,0.484"
                   id="path14052"
                   style="fill:#231f20;fill-opacity:1;fill-rule:nonzero;stroke:none" />
                <path
                   d="m 567.9,694.852 2.074,0 -0.023,-0.315 -0.85,0 0,-2.82 -0.36,0 0,2.82 -0.841,0 0,0.315"
                   id="path14054"
                   style="fill:#231f20;fill-opacity:1;fill-rule:nonzero;stroke:none" />
                <path
                   d="m 570.421,693.975 0.352,0.068 0,-1.636 c 0,-0.215 0.032,-0.311 0.138,-0.384 0.073,-0.05 0.178,-0.077 0.278,-0.077 0.224,0 0.457,0.164 0.58,0.411 l 0,1.613 0.352,0.059 0,-1.658 c 0,-0.288 0.042,-0.402 0.156,-0.508 l -0.229,-0.242 c -0.151,0.124 -0.215,0.215 -0.247,0.366 -0.173,-0.233 -0.411,-0.348 -0.721,-0.348 -0.288,0 -0.503,0.124 -0.599,0.325 -0.041,0.087 -0.06,0.206 -0.06,0.338 l 0,1.673 z m 0.375,0.813 c 0.133,0 0.238,-0.105 0.238,-0.233 0,-0.133 -0.101,-0.242 -0.233,-0.242 -0.133,0 -0.238,0.109 -0.238,0.242 0,0.128 0.105,0.233 0.233,0.233 z m 0.946,0 c 0.128,0 0.238,-0.105 0.238,-0.233 0,-0.133 -0.105,-0.242 -0.233,-0.242 -0.133,0 -0.242,0.109 -0.242,0.242 0,0.128 0.105,0.233 0.237,0.233"
                   id="path14056"
                   style="fill:#231f20;fill-opacity:1;fill-rule:nonzero;stroke:none" />
                <path
                   d="m 572.875,694.989 0.356,0.069 c 0,0 0.059,-0.192 0.059,-0.54 l 0,-0.53 c 0,-0.114 -0.009,-0.251 -0.009,-0.251 0.224,0.219 0.411,0.306 0.654,0.306 0.544,0 0.882,-0.443 0.882,-1.156 0,-0.731 -0.361,-1.225 -0.905,-1.225 -0.238,0 -0.498,0.133 -0.626,0.302 -0.009,-0.096 -0.019,-0.156 -0.064,-0.247 l -0.357,0 c 0.051,0.11 0.069,0.261 0.069,0.567 l 0,2.239 c 0,0.297 -0.059,0.466 -0.059,0.466 z m 0.411,-2.737 c 0.119,-0.156 0.347,-0.274 0.562,-0.274 0.155,0 0.329,0.082 0.411,0.201 0.082,0.123 0.16,0.347 0.16,0.731 0,0.301 -0.037,0.48 -0.132,0.612 -0.087,0.124 -0.252,0.197 -0.43,0.197 -0.224,0 -0.448,-0.128 -0.571,-0.297 l 0,-1.17"
                   id="path14058"
                   style="fill:#231f20;fill-opacity:1;fill-rule:nonzero;stroke:none" />
                <path
                   d="m 575.419,693.984 0.371,0.059 0,-2.326 -0.371,0 0,2.267 z m 0.192,0.991 c 0.156,0 0.279,-0.123 0.279,-0.278 0,-0.156 -0.123,-0.279 -0.279,-0.279 -0.155,0 -0.278,0.123 -0.278,0.274 0,0.155 0.123,0.283 0.278,0.283"
                   id="path14060"
                   style="fill:#231f20;fill-opacity:1;fill-rule:nonzero;stroke:none" />
                <path
                   d="m 576.474,693.952 0.347,0.096 c 0,0 0.082,-0.169 0.082,-0.357 0.238,0.238 0.476,0.352 0.718,0.352 0.247,0 0.466,-0.132 0.557,-0.333 0.037,-0.083 0.055,-0.174 0.055,-0.265 l 0,-1.728 -0.361,0 0,1.54 c 0,0.242 -0.018,0.302 -0.082,0.38 -0.05,0.059 -0.146,0.095 -0.251,0.095 -0.183,0 -0.467,-0.146 -0.631,-0.32 l 0,-1.695 -0.347,0 0,1.755 c 0,0.324 -0.087,0.48 -0.087,0.48"
                   id="path14062"
                   style="fill:#231f20;fill-opacity:1;fill-rule:nonzero;stroke:none" />
                <path
                   d="m 580.736,694.011 0.22,-0.219 c -0.142,-0.101 -0.247,-0.137 -0.384,-0.137 -0.06,0 -0.115,0.009 -0.156,0.027 0.092,-0.114 0.137,-0.242 0.137,-0.388 0,-0.256 -0.127,-0.494 -0.338,-0.626 -0.114,-0.074 -0.26,-0.101 -0.425,-0.101 -0.306,-0.11 -0.411,-0.187 -0.411,-0.265 0,-0.069 0.069,-0.11 0.183,-0.11 l 0.365,0 c 0.265,0 0.412,-0.032 0.549,-0.128 0.178,-0.123 0.251,-0.283 0.251,-0.479 0,-0.494 -0.352,-0.718 -0.905,-0.718 -0.713,0 -0.987,0.256 -0.987,0.58 0,0.083 0.014,0.151 0.046,0.243 l 0.374,0.032 c -0.031,-0.05 -0.063,-0.133 -0.063,-0.206 0,-0.119 0.05,-0.215 0.132,-0.265 0.11,-0.064 0.279,-0.105 0.462,-0.105 0.351,0 0.553,0.114 0.553,0.397 0,0.124 -0.042,0.22 -0.124,0.275 -0.087,0.059 -0.224,0.082 -0.448,0.082 -0.091,0 -0.278,-0.004 -0.351,-0.004 -0.27,0 -0.43,0.123 -0.43,0.328 0,0.183 0.101,0.293 0.411,0.389 -0.306,0.096 -0.512,0.356 -0.512,0.658 0,0.457 0.343,0.768 0.841,0.768 0.347,0 0.416,-0.128 0.695,-0.128 0.119,0 0.206,0.027 0.315,0.1 z m -1.019,-0.274 c -0.283,0 -0.429,-0.146 -0.429,-0.462 0,-0.292 0.15,-0.443 0.438,-0.443 0.274,0 0.411,0.151 0.411,0.457 0,0.311 -0.118,0.448 -0.42,0.448"
                   id="path14064"
                   style="fill:#231f20;fill-opacity:1;fill-rule:nonzero;stroke:none" />
                <path
                   d="m 582.828,692.179 0.137,-0.229 c -0.201,-0.183 -0.475,-0.283 -0.768,-0.283 -0.63,0 -1.01,0.457 -1.01,1.211 0,0.384 0.083,0.63 0.275,0.859 0.183,0.215 0.406,0.315 0.681,0.315 0.246,0 0.461,-0.087 0.617,-0.246 0.196,-0.202 0.251,-0.416 0.26,-0.96 l 0,-0.05 -1.421,0 0,-0.055 c 0,-0.215 0.027,-0.379 0.105,-0.498 0.128,-0.197 0.338,-0.279 0.566,-0.279 0.22,0 0.398,0.068 0.558,0.215 z m -1.229,0.886 1.042,0 c -0.005,0.247 -0.037,0.398 -0.105,0.507 -0.078,0.124 -0.238,0.201 -0.412,0.201 -0.324,0 -0.507,-0.237 -0.525,-0.708"
                   id="path14066"
                   style="fill:#231f20;fill-opacity:1;fill-rule:nonzero;stroke:none" />
                <path
                   d="m 583.576,693.952 0.348,0.096 c 0,0 0.082,-0.169 0.082,-0.357 0.238,0.238 0.475,0.352 0.718,0.352 0.246,0 0.466,-0.132 0.557,-0.333 0.036,-0.083 0.055,-0.174 0.055,-0.265 l 0,-1.728 -0.361,0 0,1.54 c 0,0.242 -0.019,0.302 -0.083,0.38 -0.05,0.059 -0.146,0.095 -0.251,0.095 -0.183,0 -0.466,-0.146 -0.63,-0.32 l 0,-1.695 -0.348,0 0,1.755 c 0,0.324 -0.087,0.48 -0.087,0.48"
                   id="path14068"
                   style="fill:#231f20;fill-opacity:1;fill-rule:nonzero;stroke:none" />
                <path
                   d="m 544.513,704.026 c 0,-1.648 -0.065,-2.39 -0.546,-3.159 -0.93,-1.593 -3.432,-3.077 -7.859,-3.077 -3.529,0 -5.967,0.824 -7.314,2.39 -0.834,1.044 -1.091,1.511 -1.091,4.066 l 0,13.021 5.775,0 0,-12.499 c 0,-1.758 0.641,-2.94 2.662,-2.94 2.053,0 2.63,0.989 2.63,2.857 l 0,12.582 5.743,0 0,-13.241"
                   id="path14070"
                   style="fill:#231f20;fill-opacity:1;fill-rule:nonzero;stroke:none" />
                <path
                   d="m 560.902,708.504 6.993,-10.384 -7.571,0 -5.613,10.301 4.94,8.846 7.121,0 -5.87,-8.763 z m -6.256,-10.384 -5.7421,0 0,19.147 5.7421,0 0,-19.147 z"
                   id="path14072"
                   style="fill:#231f20;fill-opacity:1;fill-rule:nonzero;stroke:none" />
                <path
                   d="m 584.798,713.201 -5.197,0 0,-15.081 -5.806,0 0,15.081 -5.197,0 0,4.066 16.873,0 -0.673,-4.066"
                   id="path14074"
                   style="fill:#231f20;fill-opacity:1;fill-rule:nonzero;stroke:none" />
              </g>
            </g>
          </g>
        </g>
      </g>
    </g>
  </g>
</svg>
